<svg width="571" height="344" viewBox="0 0 571 344" fill="none" xmlns="http://www.w3.org/2000/svg">
<path d="M317.279 172.76C322.889 172.76 328.499 172.76 334.279 172.76C334.348 194.056 334.402 215.353 334.434 236.65C334.45 246.538 334.471 256.426 334.505 266.314C334.535 274.932 334.554 283.55 334.561 292.168C334.565 296.732 334.574 301.295 334.596 305.859C334.616 310.154 334.623 314.449 334.618 318.744C334.619 320.321 334.625 321.898 334.637 323.474C334.651 325.627 334.648 327.779 334.64 329.932C334.642 331.137 334.645 332.342 334.648 333.583C334.242 337.08 333.378 338.962 331.279 341.76C327.921 343.439 324.57 343.154 321.029 342.072C318.578 340.234 318.206 338.69 317.279 335.76C316.914 332.994 316.773 330.233 316.654 327.447C316.615 326.707 316.577 325.966 316.537 325.203C316.443 323.389 316.36 321.574 316.279 319.76C315.745 320.412 315.212 321.064 314.662 321.736C306.077 331.806 295.45 338.457 282.279 340.76C262.775 342.071 245.962 339.873 230.404 327.01C218.189 315.423 212.976 299.59 212.15 283.201C211.748 264.75 216.679 248.131 229.373 234.514C240.861 223.504 255.54 219.164 271.154 219.322C272.205 219.33 273.257 219.337 274.34 219.345C289.012 219.656 301.546 224.538 312.279 234.76C313.599 236.74 314.919 238.72 316.279 240.76C316.609 218.32 316.939 195.88 317.279 172.76ZM243.279 245.76C242.589 246.397 241.9 247.033 241.189 247.689C232.772 256.247 229.227 267.46 229.029 279.322C229.186 292.039 232.804 303.986 241.404 313.572C250.971 322.416 263.483 325.4 276.142 325.064C288.06 324.398 297.812 319.35 306.119 310.885C315.311 299.657 317.443 285.812 316.279 271.76C314.148 259.421 307.725 249.5 297.58 242.193C281.26 232.025 257.698 232.334 243.279 245.76Z" fill="black"/>
<path d="M467.279 230.76C478.69 239.78 484.496 253.601 486.279 267.76C486.414 271.032 486.419 274.298 486.404 277.572C486.408 278.443 486.412 279.314 486.416 280.211C486.414 281.038 486.413 281.865 486.412 282.717C486.411 283.469 486.41 284.222 486.408 284.997C486.279 286.76 486.279 286.76 485.279 287.76C482.143 287.855 479.03 287.885 475.894 287.873C474.416 287.874 474.416 287.874 472.908 287.874C469.635 287.873 466.361 287.865 463.088 287.857C460.825 287.856 458.562 287.854 456.299 287.853C450.329 287.849 444.36 287.84 438.391 287.829C432.305 287.818 426.219 287.814 420.133 287.809C408.181 287.798 396.23 287.781 384.279 287.76C385.047 290.157 385.823 292.551 386.603 294.943C386.818 295.616 387.033 296.289 387.255 296.983C391.129 308.802 398.109 315.343 409.029 320.9C422.698 326.121 437.781 324.82 451.279 319.76C457.186 316.934 461.872 313.568 466.279 308.76C470 306.279 471.877 306.296 476.279 306.76C479.29 308.767 480.104 309.989 480.904 313.51C479.35 321.59 473.048 326.164 466.521 330.599C454.696 338.209 441.855 341.153 427.967 341.072C426.44 341.064 426.44 341.064 424.883 341.055C407.721 340.778 394.374 335.028 382.279 322.76C381.704 322.195 381.129 321.631 380.537 321.049C368.286 308.037 366.598 291.186 366.998 274.209C367.611 259.198 373.769 245.542 384.279 234.76C406.947 215.158 442.752 213.283 467.279 230.76ZM394.467 247.447C388.217 255.185 386.222 263.046 384.279 272.76C412.659 272.76 441.039 272.76 470.279 272.76C468.276 260.744 465.803 250.501 455.904 242.947C437.508 230.405 410.392 230.626 394.467 247.447Z" fill="black"/>
<path d="M93.021 228.111C97.6966 231.525 102.052 234.92 105.279 239.76C105.609 233.49 105.939 227.22 106.279 220.76C111.559 220.76 116.839 220.76 122.279 220.76C122.348 235.946 122.402 251.131 122.434 266.317C122.45 273.368 122.471 280.419 122.505 287.47C122.538 294.272 122.556 301.073 122.563 307.875C122.569 310.473 122.58 313.071 122.596 315.669C122.618 319.301 122.621 322.933 122.619 326.565C122.63 327.645 122.641 328.725 122.652 329.837C122.648 330.827 122.644 331.817 122.64 332.837C122.642 333.696 122.645 334.555 122.648 335.44C122.192 338.307 121.262 339.665 119.279 341.76C115.588 342.963 113.983 343.104 110.466 341.385C108.279 339.76 108.279 339.76 107.279 338.76C107.122 337.273 107.028 335.78 106.962 334.287C106.921 333.388 106.879 332.489 106.835 331.563C106.796 330.617 106.757 329.671 106.716 328.697C106.673 327.748 106.63 326.798 106.585 325.82C106.479 323.467 106.377 321.113 106.279 318.76C105.757 319.4 105.235 320.041 104.697 320.701C95.6351 331.35 84.9703 337.761 71.2788 340.76C52.061 342.271 34.7391 339.732 19.5289 327.01C6.72206 314.935 1.6968 299.294 0.0288501 282.197C-0.476813 265.005 5.67971 248.262 17.314 235.635C36.8708 216.972 70.238 213.299 93.021 228.111ZM28.5289 248.385C20.0556 258.881 16.0546 271.351 17.2789 284.76C19.14 297.303 23.8649 308.982 34.2789 316.76C47.2817 324.594 59.8911 326.81 74.8804 324.111C85.813 320.806 95.1233 313.101 100.752 303.158C103.637 297.185 105.488 291.345 106.279 284.76C106.405 283.739 106.405 283.739 106.533 282.697C107.238 270.679 102.81 257.974 95.2788 248.76C87.3056 239.891 76.2067 235.578 64.5093 234.506C51.2278 233.966 37.7839 238.645 28.5289 248.385Z" fill="black"/>
<path d="M377.279 111.76C379.904 112.135 379.904 112.135 382.279 112.76C382.671 113.956 383.063 115.152 383.467 116.385C384.07 118.177 384.674 119.968 385.279 121.76C385.643 122.858 386.006 123.956 386.381 125.088C388.724 131.95 391.309 138.053 395.24 144.162C397.341 149.414 395.136 154.627 393.031 159.584C392.73 160.27 392.429 160.956 392.119 161.662C391.81 162.385 391.5 163.107 391.182 163.852C390.201 166.137 389.209 168.417 388.217 170.697C387.546 172.255 386.876 173.813 386.207 175.371C384.573 179.171 382.929 182.967 381.279 186.76C382.156 186.437 383.034 186.114 383.938 185.782C387.214 184.577 390.49 183.373 393.767 182.17C395.181 181.65 396.595 181.131 398.009 180.61C400.049 179.86 402.09 179.11 404.131 178.361C405.356 177.911 406.581 177.461 407.844 176.997C408.978 176.588 410.111 176.18 411.279 175.76C412.346 175.373 413.414 174.987 414.513 174.589C420.247 172.87 424.892 174.804 429.921 177.49C430.576 177.847 431.23 178.204 431.904 178.572C453.252 189.644 476.325 191.33 499.34 184.385C521.869 177.118 540.141 161.926 551.279 141.131C555.858 132.07 558.681 122.543 561.279 112.76C563.592 112.135 563.592 112.135 566.279 111.76C567.269 112.42 568.259 113.08 569.279 113.76C567.634 138.023 553.601 159.285 536.007 175.282C515.032 193.222 488.282 199.11 461.279 197.76C447.74 196.557 433.529 192.108 422.174 184.545C417.276 182.515 410.667 186.376 405.998 188.139C404.168 188.819 402.339 189.5 400.51 190.18C397.638 191.252 394.767 192.327 391.899 193.406C389.122 194.449 386.341 195.482 383.56 196.514C382.277 197.001 382.277 197.001 380.968 197.498C373.365 200.307 373.365 200.307 369.279 199.76C368.279 198.76 368.279 198.76 367.955 195.781C368.037 190.774 370.271 186.821 372.463 182.416C373.318 180.594 374.17 178.771 375.019 176.947C376.359 174.101 377.713 171.267 379.117 168.451C385.188 157.373 385.188 157.373 385.338 145.316C383.744 141.529 381.506 138.206 379.279 134.76C376.605 127.842 374.435 121.213 375.279 113.76C375.939 113.1 376.599 112.44 377.279 111.76Z" fill="black"/>
<path d="M528.615 17.3808C530.895 19.113 533.094 20.9088 535.279 22.7597C536.104 23.4507 536.929 24.1416 537.779 24.8535C552.188 37.3295 566.135 57.0922 568.154 76.6973C568.22 78.0504 568.272 79.405 568.279 80.7598C565.279 82.7598 565.279 82.7598 563.279 82.8223C559.089 80.5966 557.802 73.4468 556.34 69.1665C551.675 55.7799 544.328 44.809 534.279 34.7598C533.583 34.0637 532.887 33.3676 532.169 32.6504C514.654 16.1576 490.919 8.6961 467.13 9.40819C454.973 10.0877 443.191 13.4131 432.279 18.7597C431.358 19.2006 430.438 19.6415 429.49 20.0957C405.599 32.2763 392.686 53.6597 384.404 78.1973C383.847 79.9607 383.847 79.9607 383.279 81.7598C380.966 82.4473 380.966 82.4473 378.279 82.7598C376.583 81.5762 376.583 81.5762 375.279 79.7598C374.79 63.7739 386.685 45.8546 396.841 34.3848C398.309 32.8327 399.788 31.2904 401.279 29.7597C401.936 29.0521 402.594 28.3444 403.271 27.6152C435.17 -5.88511 491.43 -8.42464 528.615 17.3808Z" fill="black"/>
<path d="M162.279 220.76C167.889 220.76 173.499 220.76 179.279 220.76C179.394 235.928 179.484 251.097 179.538 266.265C179.564 273.309 179.599 280.352 179.656 287.395C179.711 294.19 179.74 300.985 179.753 307.78C179.762 310.374 179.78 312.969 179.807 315.563C179.844 319.193 179.849 322.822 179.846 326.452C179.864 327.528 179.882 328.604 179.901 329.713C179.85 336.976 179.85 336.976 176.966 340.931C173.439 343.331 171.462 343.444 167.279 342.76C164.914 340.893 163.618 339.439 162.279 336.76C162.186 335.214 162.157 333.664 162.158 332.115C162.157 331.137 162.156 330.158 162.154 329.149C162.158 328.072 162.161 326.994 162.165 325.884C162.165 324.753 162.165 323.621 162.165 322.455C162.165 318.7 162.173 314.945 162.181 311.189C162.183 308.592 162.184 305.994 162.185 303.396C162.189 297.248 162.197 291.099 162.207 284.951C162.218 277.953 162.223 270.954 162.228 263.955C162.239 249.557 162.257 235.158 162.279 220.76Z" fill="black"/>
<path d="M468.279 50.7598C471.154 50.6348 471.154 50.6348 474.279 50.7598C476.832 53.3133 476.519 54.9626 476.539 58.4441C476.53 59.6348 476.53 59.6348 476.522 60.8496C476.524 61.6855 476.526 62.5214 476.527 63.3826C476.531 66.1542 476.52 68.9256 476.509 71.6973C476.508 73.6178 476.508 75.5382 476.508 77.4587C476.506 81.4872 476.498 85.5155 476.485 89.5439C476.468 94.716 476.464 99.888 476.465 105.06C476.464 109.027 476.459 112.994 476.452 116.96C476.448 118.868 476.446 120.775 476.446 122.683C476.444 125.345 476.435 128.007 476.424 130.67C476.425 131.464 476.425 132.258 476.425 133.075C476.393 138.531 476.393 138.531 475.279 140.76C472.305 141.85 471.395 141.798 468.279 140.76C466.691 137.583 467.141 134.158 467.149 130.67C467.148 129.834 467.146 128.998 467.144 128.137C467.14 125.365 467.143 122.594 467.146 119.822C467.145 117.902 467.144 115.981 467.143 114.061C467.142 110.032 467.144 106.004 467.148 101.976C467.154 96.8035 467.151 91.6315 467.145 86.4594C467.141 82.4927 467.142 78.526 467.145 74.5593C467.146 72.6518 467.145 70.7444 467.143 68.8369C467.14 66.1745 467.144 63.5121 467.149 60.8496C467.147 60.0558 467.145 59.2619 467.143 58.4441C467.165 52.9883 467.165 52.9883 468.279 50.7598Z" fill="#FF7300"/>
<path d="M431.279 64.7598C433.779 64.4473 433.779 64.4473 436.279 64.7598C438.919 67.3999 438.532 68.596 438.538 72.2793C438.544 73.4339 438.55 74.5885 438.557 75.7781C438.553 77.0302 438.549 78.2822 438.544 79.5723C438.546 80.8521 438.548 82.1319 438.55 83.4504C438.553 86.1607 438.549 88.8708 438.54 91.5811C438.528 95.0583 438.535 98.5352 438.547 102.012C438.556 105.324 438.549 108.636 438.544 111.947C438.549 113.199 438.553 114.451 438.557 115.741C438.55 116.896 438.544 118.051 438.538 119.24C438.535 120.77 438.535 120.77 438.533 122.331C438.279 124.76 438.279 124.76 436.279 126.76C433.779 127.072 433.779 127.072 431.279 126.76C429.034 123.392 429.026 122.265 429.02 118.326C429.014 117.215 429.007 116.104 429.001 114.959C429.005 113.759 429.009 112.559 429.013 111.322C429.011 110.091 429.009 108.859 429.007 107.59C429.006 104.316 429.014 101.043 429.025 97.7692C429.029 95.7617 429.025 93.7545 429.018 91.7471C429.006 87.8971 429.007 84.0473 429.013 80.1973C429.009 78.9972 429.005 77.7972 429.001 76.5608C429.007 75.4495 429.014 74.3383 429.02 73.1934C429.022 72.2142 429.023 71.2351 429.025 70.2263C429.279 67.7598 429.279 67.7598 431.279 64.7598Z" fill="#FF7300"/>
<path d="M450.279 67.7598C452.779 67.4473 452.779 67.4473 455.279 67.7598C457.822 70.3025 457.532 71.2042 457.538 74.7285C457.544 75.763 457.55 76.7975 457.557 77.8633C457.553 78.9841 457.549 80.105 457.544 81.2598C457.546 82.4064 457.548 83.553 457.55 84.7344C457.552 87.1621 457.548 89.5899 457.54 92.0176C457.529 95.7443 457.54 99.4706 457.552 103.197C457.551 105.551 457.548 107.906 457.544 110.26C457.549 111.381 457.553 112.501 457.557 113.656C457.55 114.691 457.544 115.725 457.538 116.791C457.535 118.161 457.535 118.161 457.533 119.559C457.279 121.76 457.279 121.76 455.279 123.76C452.779 124.01 452.779 124.01 450.279 123.76C447.756 121.236 448.026 120.39 448.02 116.899C448.014 115.887 448.007 114.876 448.001 113.834C448.005 112.739 448.009 111.643 448.013 110.514C448.011 109.392 448.009 108.27 448.007 107.114C448.006 104.737 448.01 102.361 448.018 99.9841C448.029 96.3408 448.018 92.698 448.005 89.0547C448.007 86.7493 448.009 84.444 448.013 82.1387C448.009 81.0449 448.005 79.9511 448.001 78.8241C448.007 77.8097 448.014 76.7954 448.02 75.7502C448.022 74.8569 448.023 73.9636 448.025 73.0432C448.279 70.7598 448.279 70.7598 450.279 67.7598Z" fill="#FF7300"/>
<path d="M490.779 67.4473C492.016 67.602 492.016 67.602 493.279 67.7598C495.441 71.0029 495.531 71.8983 495.538 75.6426C495.544 76.6337 495.55 77.6248 495.557 78.646C495.553 79.7148 495.549 80.7836 495.544 81.8848C495.546 82.9832 495.548 84.0817 495.55 85.2134C495.552 87.5368 495.548 89.8602 495.54 92.1836C495.529 95.7456 495.54 99.3071 495.552 102.869C495.551 105.124 495.548 107.38 495.544 109.635C495.549 110.704 495.553 111.772 495.557 112.874C495.55 113.865 495.544 114.856 495.538 115.877C495.535 117.186 495.535 117.186 495.533 118.521C495.279 120.76 495.279 120.76 493.279 123.76C490.779 124.072 490.779 124.072 488.279 123.76C485.736 121.217 486.026 120.315 486.02 116.791C486.014 115.757 486.007 114.722 486.001 113.656C486.005 112.535 486.009 111.415 486.013 110.26C486.011 109.113 486.009 107.967 486.007 106.785C486.006 104.357 486.01 101.93 486.018 99.502C486.029 95.7752 486.018 92.049 486.005 88.3223C486.007 85.9681 486.009 83.6139 486.013 81.2598C486.009 80.1389 486.005 79.0181 486.001 77.8633C486.007 76.8288 486.014 75.7943 486.02 74.7285C486.022 73.8152 486.023 72.9019 486.025 71.9609C486.409 68.6347 487.52 67.8546 490.779 67.4473Z" fill="#FF7300"/>
<path d="M509.841 64.5723C512.279 64.7598 512.279 64.7598 513.279 65.7598C513.378 67.6261 513.407 69.4962 513.408 71.3652C513.411 72.5632 513.414 73.7611 513.418 74.9954C513.416 76.2995 513.414 77.6036 513.411 78.9473C513.412 80.2887 513.413 81.63 513.414 82.9714C513.416 85.786 513.414 88.6005 513.409 91.415C513.403 95.0302 513.407 98.6452 513.413 102.26C513.416 105.031 513.415 107.802 513.412 110.573C513.411 112.557 513.414 114.54 513.418 116.524C513.414 117.722 513.411 118.92 513.408 120.154C513.407 121.745 513.407 121.745 513.406 123.368C513.279 125.76 513.279 125.76 512.279 126.76C510.279 126.801 508.278 126.802 506.279 126.76C504.966 124.135 505.144 122.179 505.133 119.24C505.127 118.086 505.121 116.931 505.114 115.741C505.113 114.489 505.112 113.237 505.111 111.947C505.106 110.028 505.106 110.028 505.101 108.069C505.095 105.359 505.093 102.649 505.093 99.9385C505.093 96.4613 505.08 92.9843 505.063 89.5072C505.049 86.1955 505.049 82.8839 505.048 79.5723C505.041 78.3202 505.034 77.0681 505.026 75.7781C505.029 74.6235 505.033 73.4689 505.036 72.2793C505.034 71.2594 505.033 70.2395 505.031 69.1887C505.388 65.6875 506.347 64.828 509.841 64.5723Z" fill="#FF7300"/>
<path d="M176.279 173.76C179.432 175.533 180.788 176.956 182.654 180.01C183.522 183.831 183.424 187.004 182.279 190.76C180.221 193.782 178.7 195.338 175.158 196.389C171.291 197.008 168.669 196.882 164.904 195.697C161.598 193.257 160.516 191.69 159.279 187.76C158.906 182.725 159.544 179.683 162.716 175.697C166.857 172.817 171.452 172.89 176.279 173.76Z" fill="black"/>
<path d="M418.279 78.7595C420.192 80.6724 419.443 84.1818 419.447 86.7869C419.45 87.491 419.453 88.1951 419.457 88.9206C419.462 90.4127 419.464 91.9048 419.464 93.397C419.466 95.684 419.484 97.9706 419.503 100.258C419.506 101.705 419.508 103.152 419.509 104.599C419.516 105.286 419.524 105.972 419.531 106.68C419.508 111.531 419.508 111.531 417.279 113.76C415.299 113.43 413.319 113.1 411.279 112.76C411.279 101.54 411.279 90.3195 411.279 78.7595C413.962 77.4177 415.432 78.0295 418.279 78.7595Z" fill="#FF7300"/>
<path d="M526.279 77.7598C530.834 78.3153 530.834 78.3153 532.279 79.7598C532.367 82.2081 532.394 84.628 532.376 87.0762C532.375 87.8072 532.374 88.5383 532.372 89.2915C532.366 91.6351 532.354 93.9787 532.341 96.3223C532.336 97.9076 532.332 99.4928 532.328 101.078C532.316 104.972 532.299 108.866 532.279 112.76C529.404 113.385 529.404 113.385 526.279 113.76C523.374 110.855 524.02 108.692 524.013 104.635C524.011 103.932 524.009 103.229 524.007 102.505C524.006 101.019 524.01 99.533 524.018 98.0469C524.029 95.7686 524.018 93.4911 524.005 91.2129C524.007 89.7702 524.009 88.3275 524.013 86.8848C524.015 85.5673 524.018 84.2499 524.02 82.8926C524.279 79.7598 524.279 79.7598 526.279 77.7598Z" fill="#FF7300"/>
<path d="M548.904 86.0095C549.687 86.257 550.471 86.5045 551.279 86.7595C552.788 89.7782 552.463 92.8895 552.466 96.197C552.478 96.8783 552.491 97.5596 552.503 98.2615C552.514 101.988 552.399 103.579 550.279 106.76C547.779 107.072 547.779 107.072 545.279 106.76C542.659 104.14 542.99 102.211 542.956 98.6384C542.96 97.8534 542.963 97.0684 542.966 96.2595C542.95 95.4745 542.934 94.6895 542.917 93.8806C542.915 91.6033 542.915 91.6033 543.279 87.7595C546.279 85.7595 546.279 85.7595 548.904 86.0095Z" fill="#FF7300"/>
<path d="M394.279 85.7598C398.835 86.3153 398.835 86.3153 400.279 87.7598C400.406 90.5839 400.464 93.3727 400.467 96.1973C400.479 96.9868 400.491 97.7764 400.504 98.5898C400.509 100.648 400.401 102.705 400.279 104.76C398.279 106.76 398.279 106.76 395.717 106.947C393.279 106.76 393.279 106.76 392.279 105.76C392.152 102.77 392.094 99.8128 392.092 96.8223C392.079 95.985 392.067 95.1478 392.054 94.2852C392.053 93.484 392.051 92.6829 392.049 91.8574C392.044 91.1202 392.04 90.3829 392.036 89.6233C392.279 87.7598 392.279 87.7598 394.279 85.7598Z" fill="#FF7300"/>
<path d="M568.029 92.6347C569.143 93.1916 569.143 93.1916 570.279 93.7597C570.279 96.0697 570.279 98.3797 570.279 100.76C566.904 101.385 566.904 101.385 563.279 101.76C561.279 99.7597 561.279 99.7597 561.154 96.6347C561.195 95.686 561.236 94.7372 561.279 93.7597C564.008 91.9404 564.815 91.6121 568.029 92.6347Z" fill="#FF7300"/>
<path d="M377.779 92.6348C381.279 92.7598 381.279 92.7598 382.279 93.7598C382.32 96.0927 382.321 98.4268 382.279 100.76C378.904 101.385 378.904 101.385 375.279 101.76C373.279 99.7598 373.279 99.7598 373.091 96.6973C373.362 92.4524 373.419 92.7905 377.779 92.6348Z" fill="#FF7300"/>
</svg>
