<svg width="1087" height="459" viewBox="0 0 1087 459" fill="none" xmlns="http://www.w3.org/2000/svg">
<path d="M112.605 221.322H126.483V338H111.834V315.127C103.61 330.547 86.1337 340.313 66.0877 340.313C32.4207 340.313 9.80473 318.725 9.80473 279.918C9.80473 241.368 33.7057 219.009 66.6017 219.009C88.1897 219.009 105.666 229.289 112.605 246.765V221.322ZM110.806 282.488V279.918C110.806 248.821 93.0727 233.144 68.4007 233.144C43.9857 233.144 25.9957 249.849 25.4817 279.918C24.9677 309.987 43.2147 326.178 68.4007 326.178C90.5027 326.178 110.806 312.814 110.806 282.488ZM214.648 341.341C186.378 341.341 166.075 326.178 166.075 284.544V221.322H180.981L181.752 285.315C182.266 317.697 196.658 327.206 214.648 327.206C232.638 327.206 247.287 317.697 247.801 285.315L248.572 221.322H263.478V284.544C263.478 326.178 243.175 341.341 214.648 341.341ZM361.879 318.468L366.762 330.804C360.08 336.458 349.8 341.341 336.693 341.341C315.105 341.341 305.339 329.005 305.339 299.45V234.429H288.891V221.579H305.339V180.716H319.988V221.322L359.052 221.065V233.915L319.988 234.172V298.936C319.988 318.982 325.642 327.977 339.52 327.977C348.258 327.977 355.711 324.636 361.879 318.468ZM431.6 341.341C396.648 341.341 371.462 316.412 371.462 279.918C371.462 243.424 396.905 217.981 431.6 217.981C466.552 217.981 491.995 243.424 491.995 279.918C491.995 316.412 466.552 341.341 431.6 341.341ZM431.6 326.692C458.071 326.692 476.575 307.674 476.061 279.918C475.804 252.419 458.071 232.63 431.6 232.63C405.386 232.63 387.653 252.419 387.139 279.918C386.625 307.674 405.386 326.692 431.6 326.692Z" fill="#612EA7"/>
<path d="M833.279 172.76C838.889 172.76 844.499 172.76 850.279 172.76C850.348 194.056 850.402 215.353 850.434 236.65C850.45 246.538 850.471 256.426 850.505 266.314C850.535 274.932 850.554 283.55 850.561 292.168C850.565 296.732 850.574 301.295 850.596 305.859C850.616 310.154 850.623 314.449 850.618 318.744C850.619 320.321 850.625 321.898 850.637 323.474C850.651 325.627 850.648 327.779 850.64 329.932C850.642 331.137 850.645 332.342 850.648 333.583C850.242 337.08 849.378 338.962 847.279 341.76C843.921 343.439 840.57 343.154 837.029 342.072C834.578 340.234 834.206 338.69 833.279 335.76C832.914 332.994 832.773 330.233 832.654 327.447C832.615 326.707 832.577 325.966 832.537 325.203C832.443 323.389 832.36 321.574 832.279 319.76C831.745 320.412 831.212 321.064 830.662 321.736C822.077 331.806 811.45 338.457 798.279 340.76C778.775 342.071 761.962 339.873 746.404 327.01C734.189 315.423 728.976 299.59 728.15 283.201C727.748 264.75 732.679 248.131 745.373 234.514C756.861 223.504 771.54 219.164 787.154 219.322C788.205 219.33 789.257 219.337 790.34 219.345C805.012 219.656 817.546 224.538 828.279 234.76C829.599 236.74 830.919 238.72 832.279 240.76C832.609 218.32 832.939 195.88 833.279 172.76ZM759.279 245.76C758.589 246.397 757.9 247.033 757.189 247.689C748.772 256.247 745.227 267.46 745.029 279.322C745.186 292.039 748.804 303.986 757.404 313.572C766.971 322.416 779.483 325.4 792.142 325.064C804.06 324.398 813.812 319.35 822.119 310.885C831.311 299.657 833.443 285.812 832.279 271.76C830.148 259.421 823.725 249.5 813.58 242.193C797.26 232.025 773.698 232.334 759.279 245.76Z" fill="black"/>
<path d="M983.279 230.76C994.69 239.78 1000.5 253.601 1002.28 267.76C1002.41 271.032 1002.42 274.298 1002.4 277.572C1002.41 278.443 1002.41 279.314 1002.42 280.211C1002.41 281.038 1002.41 281.865 1002.41 282.717C1002.41 283.469 1002.41 284.222 1002.41 284.997C1002.28 286.76 1002.28 286.76 1001.28 287.76C998.143 287.855 995.03 287.885 991.894 287.873C990.416 287.874 990.416 287.874 988.908 287.874C985.635 287.873 982.361 287.865 979.088 287.857C976.825 287.856 974.562 287.854 972.299 287.853C966.329 287.849 960.36 287.84 954.391 287.829C948.305 287.818 942.219 287.814 936.133 287.809C924.181 287.798 912.23 287.781 900.279 287.76C901.047 290.157 901.823 292.551 902.603 294.943C902.818 295.616 903.033 296.289 903.255 296.983C907.129 308.802 914.109 315.343 925.029 320.9C938.698 326.121 953.781 324.82 967.279 319.76C973.186 316.934 977.872 313.568 982.279 308.76C986 306.279 987.877 306.296 992.279 306.76C995.29 308.767 996.104 309.989 996.904 313.51C995.35 321.59 989.048 326.164 982.521 330.599C970.696 338.209 957.855 341.153 943.967 341.072C942.44 341.064 942.44 341.064 940.883 341.055C923.721 340.778 910.374 335.028 898.279 322.76C897.704 322.195 897.129 321.631 896.537 321.049C884.286 308.037 882.598 291.186 882.998 274.209C883.611 259.198 889.769 245.542 900.279 234.76C922.947 215.158 958.752 213.283 983.279 230.76ZM910.467 247.447C904.217 255.185 902.222 263.046 900.279 272.76C928.659 272.76 957.039 272.76 986.279 272.76C984.276 260.744 981.803 250.501 971.904 242.947C953.508 230.405 926.392 230.626 910.467 247.447Z" fill="black"/>
<path d="M609.021 228.111C613.697 231.525 618.052 234.92 621.279 239.76C621.609 233.49 621.939 227.22 622.279 220.76C627.559 220.76 632.839 220.76 638.279 220.76C638.348 235.946 638.402 251.131 638.434 266.317C638.45 273.368 638.471 280.419 638.505 287.47C638.538 294.272 638.556 301.073 638.563 307.875C638.569 310.473 638.58 313.071 638.596 315.669C638.618 319.301 638.621 322.933 638.619 326.565C638.63 327.645 638.641 328.725 638.652 329.837C638.648 330.827 638.644 331.817 638.64 332.837C638.642 333.696 638.645 334.555 638.648 335.44C638.192 338.307 637.262 339.665 635.279 341.76C631.588 342.963 629.983 343.104 626.466 341.385C624.279 339.76 624.279 339.76 623.279 338.76C623.122 337.273 623.028 335.78 622.962 334.287C622.921 333.388 622.879 332.489 622.835 331.563C622.796 330.617 622.757 329.671 622.716 328.697C622.673 327.748 622.63 326.798 622.585 325.82C622.479 323.467 622.377 321.113 622.279 318.76C621.757 319.4 621.235 320.041 620.697 320.701C611.635 331.35 600.97 337.761 587.279 340.76C568.061 342.271 550.739 339.732 535.529 327.01C522.722 314.935 517.697 299.294 516.029 282.197C515.523 265.005 521.68 248.262 533.314 235.635C552.871 216.972 586.238 213.299 609.021 228.111ZM544.529 248.385C536.056 258.881 532.055 271.351 533.279 284.76C535.14 297.303 539.865 308.982 550.279 316.76C563.282 324.594 575.891 326.81 590.88 324.111C601.813 320.806 611.123 313.101 616.752 303.158C619.637 297.185 621.488 291.345 622.279 284.76C622.405 283.739 622.405 283.739 622.533 282.697C623.238 270.679 618.81 257.974 611.279 248.76C603.306 239.891 592.207 235.578 580.509 234.506C567.228 233.966 553.784 238.645 544.529 248.385Z" fill="black"/>
<path d="M893.279 111.76C895.904 112.135 895.904 112.135 898.279 112.76C898.671 113.956 899.063 115.152 899.467 116.385C900.07 118.177 900.674 119.968 901.279 121.76C901.643 122.858 902.006 123.956 902.381 125.088C904.724 131.95 907.309 138.053 911.24 144.162C913.341 149.414 911.136 154.627 909.031 159.584C908.73 160.27 908.429 160.956 908.119 161.662C907.81 162.385 907.5 163.107 907.182 163.852C906.201 166.137 905.209 168.417 904.217 170.697C903.546 172.255 902.876 173.813 902.207 175.371C900.573 179.171 898.929 182.967 897.279 186.76C898.156 186.437 899.034 186.114 899.938 185.782C903.214 184.577 906.49 183.373 909.767 182.17C911.181 181.65 912.595 181.131 914.009 180.61C916.049 179.86 918.09 179.11 920.131 178.361C921.356 177.911 922.581 177.461 923.844 176.997C924.978 176.588 926.111 176.18 927.279 175.76C928.346 175.373 929.414 174.987 930.513 174.589C936.247 172.87 940.892 174.804 945.921 177.49C946.576 177.847 947.23 178.204 947.904 178.572C969.252 189.644 992.325 191.33 1015.34 184.385C1037.87 177.118 1056.14 161.926 1067.28 141.131C1071.86 132.07 1074.68 122.543 1077.28 112.76C1079.59 112.135 1079.59 112.135 1082.28 111.76C1083.27 112.42 1084.26 113.08 1085.28 113.76C1083.63 138.023 1069.6 159.285 1052.01 175.282C1031.03 193.222 1004.28 199.11 977.279 197.76C963.74 196.557 949.529 192.108 938.174 184.545C933.276 182.515 926.667 186.376 921.998 188.139C920.168 188.819 918.339 189.5 916.51 190.18C913.638 191.252 910.767 192.327 907.899 193.406C905.122 194.449 902.341 195.482 899.56 196.514C898.277 197.001 898.277 197.001 896.968 197.498C889.365 200.307 889.365 200.307 885.279 199.76C884.279 198.76 884.279 198.76 883.955 195.781C884.037 190.774 886.271 186.821 888.463 182.416C889.318 180.594 890.17 178.771 891.019 176.947C892.359 174.101 893.713 171.267 895.117 168.451C901.188 157.373 901.188 157.373 901.338 145.316C899.744 141.529 897.506 138.206 895.279 134.76C892.605 127.842 890.435 121.213 891.279 113.76C891.939 113.1 892.599 112.44 893.279 111.76Z" fill="black"/>
<path d="M1044.61 17.3808C1046.89 19.113 1049.09 20.9088 1051.28 22.7597C1052.1 23.4507 1052.93 24.1416 1053.78 24.8535C1068.19 37.3295 1082.14 57.0922 1084.15 76.6973C1084.22 78.0504 1084.27 79.405 1084.28 80.7598C1081.28 82.7598 1081.28 82.7598 1079.28 82.8223C1075.09 80.5966 1073.8 73.4468 1072.34 69.1665C1067.67 55.7799 1060.33 44.809 1050.28 34.7598C1049.58 34.0637 1048.89 33.3676 1048.17 32.6504C1030.65 16.1576 1006.92 8.6961 983.13 9.40819C970.973 10.0877 959.191 13.4131 948.279 18.7597C947.358 19.2006 946.438 19.6415 945.49 20.0957C921.599 32.2763 908.686 53.6597 900.404 78.1973C899.847 79.9607 899.847 79.9607 899.279 81.7598C896.966 82.4473 896.966 82.4473 894.279 82.7598C892.583 81.5762 892.583 81.5762 891.279 79.7598C890.79 63.7739 902.685 45.8546 912.841 34.3848C914.309 32.8327 915.788 31.2904 917.279 29.7597C917.936 29.0521 918.594 28.3444 919.271 27.6152C951.17 -5.88511 1007.43 -8.42464 1044.61 17.3808Z" fill="black"/>
<path d="M678.279 220.76C683.889 220.76 689.499 220.76 695.279 220.76C695.394 235.928 695.484 251.097 695.538 266.265C695.564 273.309 695.599 280.352 695.656 287.395C695.711 294.19 695.74 300.985 695.753 307.78C695.762 310.374 695.78 312.969 695.807 315.563C695.844 319.193 695.849 322.822 695.846 326.452C695.864 327.528 695.882 328.604 695.901 329.713C695.85 336.976 695.85 336.976 692.966 340.931C689.439 343.331 687.462 343.444 683.279 342.76C680.914 340.893 679.618 339.439 678.279 336.76C678.186 335.214 678.157 333.664 678.158 332.115C678.157 331.137 678.156 330.158 678.154 329.149C678.158 328.072 678.161 326.994 678.165 325.884C678.165 324.753 678.165 323.621 678.165 322.455C678.165 318.7 678.173 314.945 678.181 311.189C678.183 308.592 678.184 305.994 678.185 303.396C678.189 297.248 678.197 291.099 678.207 284.951C678.218 277.953 678.223 270.954 678.228 263.955C678.239 249.557 678.257 235.158 678.279 220.76Z" fill="black"/>
<path d="M984.279 50.7598C987.154 50.6348 987.154 50.6348 990.279 50.7598C992.832 53.3133 992.519 54.9626 992.539 58.4441C992.53 59.6348 992.53 59.6348 992.522 60.8496C992.524 61.6855 992.526 62.5214 992.527 63.3826C992.531 66.1542 992.52 68.9256 992.509 71.6973C992.508 73.6178 992.508 75.5382 992.508 77.4587C992.506 81.4872 992.498 85.5155 992.485 89.5439C992.468 94.716 992.464 99.888 992.465 105.06C992.464 109.027 992.459 112.994 992.452 116.96C992.448 118.868 992.446 120.775 992.446 122.683C992.444 125.345 992.435 128.007 992.424 130.67C992.425 131.464 992.425 132.258 992.425 133.075C992.393 138.531 992.393 138.531 991.279 140.76C988.305 141.85 987.395 141.798 984.279 140.76C982.691 137.583 983.141 134.158 983.149 130.67C983.148 129.834 983.146 128.998 983.144 128.137C983.14 125.365 983.143 122.594 983.146 119.822C983.145 117.902 983.144 115.981 983.143 114.061C983.142 110.032 983.144 106.004 983.148 101.976C983.154 96.8035 983.151 91.6315 983.145 86.4594C983.141 82.4927 983.142 78.526 983.145 74.5593C983.146 72.6518 983.145 70.7444 983.143 68.8369C983.14 66.1745 983.144 63.5121 983.149 60.8496C983.147 60.0558 983.145 59.2619 983.143 58.4441C983.165 52.9883 983.165 52.9883 984.279 50.7598Z" fill="#612EA7"/>
<path d="M947.279 64.7598C949.779 64.4473 949.779 64.4473 952.279 64.7598C954.919 67.3999 954.532 68.596 954.538 72.2793C954.544 73.4339 954.55 74.5885 954.557 75.7781C954.553 77.0302 954.549 78.2822 954.544 79.5723C954.546 80.8521 954.548 82.1319 954.55 83.4504C954.553 86.1607 954.549 88.8708 954.54 91.5811C954.528 95.0583 954.535 98.5352 954.547 102.012C954.556 105.324 954.549 108.636 954.544 111.947C954.549 113.199 954.553 114.451 954.557 115.741C954.55 116.896 954.544 118.051 954.538 119.24C954.535 120.77 954.535 120.77 954.533 122.331C954.279 124.76 954.279 124.76 952.279 126.76C949.779 127.072 949.779 127.072 947.279 126.76C945.034 123.392 945.026 122.265 945.02 118.326C945.014 117.215 945.007 116.104 945.001 114.959C945.005 113.759 945.009 112.559 945.013 111.322C945.011 110.091 945.009 108.859 945.007 107.59C945.006 104.316 945.014 101.043 945.025 97.7692C945.029 95.7617 945.025 93.7545 945.018 91.7471C945.006 87.8971 945.007 84.0473 945.013 80.1973C945.009 78.9972 945.005 77.7972 945.001 76.5608C945.007 75.4495 945.014 74.3383 945.02 73.1934C945.022 72.2142 945.023 71.2351 945.025 70.2263C945.279 67.7598 945.279 67.7598 947.279 64.7598Z" fill="#612EA7"/>
<path d="M966.279 67.7598C968.779 67.4473 968.779 67.4473 971.279 67.7598C973.822 70.3025 973.532 71.2042 973.538 74.7285C973.544 75.763 973.55 76.7975 973.557 77.8633C973.553 78.9841 973.549 80.105 973.544 81.2598C973.546 82.4064 973.548 83.553 973.55 84.7344C973.552 87.1621 973.548 89.5899 973.54 92.0176C973.529 95.7443 973.54 99.4706 973.552 103.197C973.551 105.551 973.548 107.906 973.544 110.26C973.549 111.381 973.553 112.501 973.557 113.656C973.55 114.691 973.544 115.725 973.538 116.791C973.535 118.161 973.535 118.161 973.533 119.559C973.279 121.76 973.279 121.76 971.279 123.76C968.779 124.01 968.779 124.01 966.279 123.76C963.756 121.236 964.026 120.39 964.02 116.899C964.014 115.887 964.007 114.876 964.001 113.834C964.005 112.739 964.009 111.643 964.013 110.514C964.011 109.392 964.009 108.27 964.007 107.114C964.006 104.737 964.01 102.361 964.018 99.9841C964.029 96.3408 964.018 92.698 964.005 89.0547C964.007 86.7493 964.009 84.444 964.013 82.1387C964.009 81.0449 964.005 79.9511 964.001 78.8241C964.007 77.8097 964.014 76.7954 964.02 75.7502C964.022 74.8569 964.023 73.9636 964.025 73.0432C964.279 70.7598 964.279 70.7598 966.279 67.7598Z" fill="#612EA7"/>
<path d="M1006.78 67.4473C1008.02 67.602 1008.02 67.602 1009.28 67.7598C1011.44 71.0029 1011.53 71.8983 1011.54 75.6426C1011.54 76.6337 1011.55 77.6248 1011.56 78.646C1011.55 79.7148 1011.55 80.7836 1011.54 81.8848C1011.55 82.9832 1011.55 84.0817 1011.55 85.2134C1011.55 87.5368 1011.55 89.8602 1011.54 92.1836C1011.53 95.7456 1011.54 99.3071 1011.55 102.869C1011.55 105.124 1011.55 107.38 1011.54 109.635C1011.55 110.704 1011.55 111.772 1011.56 112.874C1011.55 113.865 1011.54 114.856 1011.54 115.877C1011.54 117.186 1011.54 117.186 1011.53 118.521C1011.28 120.76 1011.28 120.76 1009.28 123.76C1006.78 124.072 1006.78 124.072 1004.28 123.76C1001.74 121.217 1002.03 120.315 1002.02 116.791C1002.01 115.757 1002.01 114.722 1002 113.656C1002.01 112.535 1002.01 111.415 1002.01 110.26C1002.01 109.113 1002.01 107.967 1002.01 106.785C1002.01 104.357 1002.01 101.93 1002.02 99.502C1002.03 95.7752 1002.02 92.049 1002.01 88.3223C1002.01 85.9681 1002.01 83.6139 1002.01 81.2598C1002.01 80.1389 1002.01 79.0181 1002 77.8633C1002.01 76.8288 1002.01 75.7943 1002.02 74.7285C1002.02 73.8152 1002.02 72.9019 1002.02 71.9609C1002.41 68.6347 1003.52 67.8546 1006.78 67.4473Z" fill="#612EA7"/>
<path d="M1025.84 64.5723C1028.28 64.7598 1028.28 64.7598 1029.28 65.7598C1029.38 67.6261 1029.41 69.4962 1029.41 71.3652C1029.41 72.5632 1029.41 73.7611 1029.42 74.9954C1029.42 76.2995 1029.41 77.6036 1029.41 78.9473C1029.41 80.2887 1029.41 81.63 1029.41 82.9714C1029.42 85.786 1029.41 88.6005 1029.41 91.415C1029.4 95.0302 1029.41 98.6452 1029.41 102.26C1029.42 105.031 1029.42 107.802 1029.41 110.573C1029.41 112.557 1029.41 114.54 1029.42 116.524C1029.41 117.722 1029.41 118.92 1029.41 120.154C1029.41 121.745 1029.41 121.745 1029.41 123.368C1029.28 125.76 1029.28 125.76 1028.28 126.76C1026.28 126.801 1024.28 126.802 1022.28 126.76C1020.97 124.135 1021.14 122.179 1021.13 119.24C1021.13 118.086 1021.12 116.931 1021.11 115.741C1021.11 114.489 1021.11 113.237 1021.11 111.947C1021.11 110.028 1021.11 110.028 1021.1 108.069C1021.09 105.359 1021.09 102.649 1021.09 99.9385C1021.09 96.4613 1021.08 92.9843 1021.06 89.5072C1021.05 86.1955 1021.05 82.8839 1021.05 79.5723C1021.04 78.3202 1021.03 77.0681 1021.03 75.7781C1021.03 74.6235 1021.03 73.4689 1021.04 72.2793C1021.03 71.2594 1021.03 70.2395 1021.03 69.1887C1021.39 65.6875 1022.35 64.828 1025.84 64.5723Z" fill="#612EA7"/>
<path d="M692.279 173.76C695.432 175.533 696.788 176.956 698.654 180.01C699.522 183.831 699.424 187.004 698.279 190.76C696.221 193.782 694.7 195.338 691.158 196.389C687.291 197.008 684.669 196.882 680.904 195.697C677.598 193.257 676.516 191.69 675.279 187.76C674.906 182.725 675.544 179.683 678.716 175.697C682.857 172.817 687.452 172.89 692.279 173.76Z" fill="black"/>
<path d="M934.279 78.7595C936.192 80.6724 935.443 84.1818 935.447 86.7869C935.45 87.491 935.453 88.1951 935.457 88.9206C935.462 90.4127 935.464 91.9048 935.464 93.397C935.466 95.684 935.484 97.9706 935.503 100.258C935.506 101.705 935.508 103.152 935.509 104.599C935.516 105.286 935.524 105.972 935.531 106.68C935.508 111.531 935.508 111.531 933.279 113.76C931.299 113.43 929.319 113.1 927.279 112.76C927.279 101.54 927.279 90.3195 927.279 78.7595C929.962 77.4177 931.432 78.0295 934.279 78.7595Z" fill="#612EA7"/>
<path d="M1042.28 77.7598C1046.83 78.3153 1046.83 78.3153 1048.28 79.7598C1048.37 82.2081 1048.39 84.628 1048.38 87.0762C1048.37 87.8072 1048.37 88.5383 1048.37 89.2915C1048.37 91.6351 1048.35 93.9787 1048.34 96.3223C1048.34 97.9076 1048.33 99.4928 1048.33 101.078C1048.32 104.972 1048.3 108.866 1048.28 112.76C1045.4 113.385 1045.4 113.385 1042.28 113.76C1039.37 110.855 1040.02 108.692 1040.01 104.635C1040.01 103.932 1040.01 103.229 1040.01 102.505C1040.01 101.019 1040.01 99.533 1040.02 98.0469C1040.03 95.7686 1040.02 93.4911 1040.01 91.2129C1040.01 89.7702 1040.01 88.3275 1040.01 86.8848C1040.02 85.5673 1040.02 84.2499 1040.02 82.8926C1040.28 79.7598 1040.28 79.7598 1042.28 77.7598Z" fill="#612EA7"/>
<path d="M1064.9 86.0095C1065.69 86.257 1066.47 86.5045 1067.28 86.7595C1068.79 89.7782 1068.46 92.8895 1068.47 96.197C1068.48 96.8783 1068.49 97.5596 1068.5 98.2615C1068.51 101.988 1068.4 103.579 1066.28 106.76C1063.78 107.072 1063.78 107.072 1061.28 106.76C1058.66 104.14 1058.99 102.211 1058.96 98.6384C1058.96 97.8534 1058.96 97.0684 1058.97 96.2595C1058.95 95.4745 1058.93 94.6895 1058.92 93.8806C1058.92 91.6033 1058.92 91.6033 1059.28 87.7595C1062.28 85.7595 1062.28 85.7595 1064.9 86.0095Z" fill="#612EA7"/>
<path d="M910.279 85.7598C914.835 86.3153 914.835 86.3153 916.279 87.7598C916.406 90.5839 916.464 93.3727 916.467 96.1973C916.479 96.9868 916.491 97.7764 916.504 98.5898C916.509 100.648 916.401 102.705 916.279 104.76C914.279 106.76 914.279 106.76 911.717 106.947C909.279 106.76 909.279 106.76 908.279 105.76C908.152 102.77 908.094 99.8128 908.092 96.8223C908.079 95.985 908.067 95.1478 908.054 94.2852C908.053 93.484 908.051 92.6829 908.049 91.8574C908.044 91.1202 908.04 90.3829 908.036 89.6233C908.279 87.7598 908.279 87.7598 910.279 85.7598Z" fill="#612EA7"/>
<path d="M1084.03 92.6347C1085.14 93.1916 1085.14 93.1916 1086.28 93.7597C1086.28 96.0697 1086.28 98.3797 1086.28 100.76C1082.9 101.385 1082.9 101.385 1079.28 101.76C1077.28 99.7597 1077.28 99.7597 1077.15 96.6347C1077.2 95.686 1077.24 94.7372 1077.28 93.7597C1080.01 91.9404 1080.81 91.6121 1084.03 92.6347Z" fill="#612EA7"/>
<path d="M893.779 92.6348C897.279 92.7598 897.279 92.7598 898.279 93.7598C898.32 96.0927 898.321 98.4268 898.279 100.76C894.904 101.385 894.904 101.385 891.279 101.76C889.279 99.7598 889.279 99.7598 889.091 96.6973C889.362 92.4524 889.419 92.7905 893.779 92.6348Z" fill="#612EA7"/>
</svg>
