<svg width="1078" height="464" viewBox="0 0 1078 464" fill="none" xmlns="http://www.w3.org/2000/svg">
<path d="M59.9489 149.479C72.7989 149.479 81.5369 154.362 87.9619 160.016L82.3079 172.352C76.3969 166.184 70.4859 163.1 61.4909 163.1C47.3559 163.1 41.1879 172.352 41.1879 190.856V226.065L68.6869 225.808V238.144L41.1879 238.401V343H26.5389V238.401L12.4039 238.658V226.322L26.5389 226.065V191.113C26.5389 164.642 37.3329 149.479 59.9489 149.479ZM137.633 346.341C109.363 346.341 89.0601 331.178 89.0601 289.544V226.322H103.966L104.737 290.315C105.251 322.697 119.643 332.206 137.633 332.206C155.623 332.206 170.272 322.697 170.786 290.315L171.557 226.322H186.463V289.544C186.463 331.178 166.16 346.341 137.633 346.341ZM282.037 223.238C306.966 223.238 324.442 233.775 324.442 275.923V343H309.793L309.279 277.722C308.765 244.055 296.429 237.373 278.439 237.373C259.935 237.373 241.688 248.167 241.431 277.979L240.66 343H226.011V226.322H239.632V250.223C246.314 232.747 261.477 223.238 282.037 223.238ZM456.717 152.306H471.366V343H456.717V317.557C449.264 334.776 432.045 346.084 410.2 346.084C376.79 346.084 354.431 324.496 354.431 284.918C354.431 245.34 378.332 222.981 411.228 222.981C433.073 222.981 449.778 233.518 456.717 251.251V152.306ZM455.946 287.488V284.918C455.946 253.821 438.213 237.116 413.541 237.116C388.869 237.116 370.365 254.078 370.108 284.918C369.594 315.501 387.841 331.949 412.77 331.949C435.386 331.949 455.946 318.328 455.946 287.488Z" fill="#40A4D8"/>
<path d="M824.279 172.76C829.889 172.76 835.499 172.76 841.279 172.76C841.348 194.056 841.402 215.353 841.434 236.65C841.45 246.538 841.471 256.426 841.505 266.314C841.535 274.932 841.554 283.55 841.561 292.168C841.565 296.732 841.574 301.295 841.596 305.859C841.616 310.154 841.623 314.449 841.618 318.744C841.619 320.321 841.625 321.898 841.637 323.474C841.651 325.627 841.648 327.779 841.64 329.932C841.642 331.137 841.645 332.342 841.648 333.583C841.242 337.08 840.378 338.962 838.279 341.76C834.921 343.439 831.57 343.154 828.029 342.072C825.578 340.234 825.206 338.69 824.279 335.76C823.914 332.994 823.773 330.233 823.654 327.447C823.615 326.707 823.577 325.966 823.537 325.203C823.443 323.389 823.36 321.574 823.279 319.76C822.745 320.412 822.212 321.064 821.662 321.736C813.077 331.806 802.45 338.457 789.279 340.76C769.775 342.071 752.962 339.873 737.404 327.01C725.189 315.423 719.976 299.59 719.15 283.201C718.748 264.75 723.679 248.131 736.373 234.514C747.861 223.504 762.54 219.164 778.154 219.322C779.205 219.33 780.257 219.337 781.34 219.345C796.012 219.656 808.546 224.538 819.279 234.76C820.599 236.74 821.919 238.72 823.279 240.76C823.609 218.32 823.939 195.88 824.279 172.76ZM750.279 245.76C749.589 246.397 748.9 247.033 748.189 247.689C739.772 256.247 736.227 267.46 736.029 279.322C736.186 292.039 739.804 303.986 748.404 313.572C757.971 322.416 770.483 325.4 783.142 325.064C795.06 324.398 804.812 319.35 813.119 310.885C822.311 299.657 824.443 285.812 823.279 271.76C821.148 259.421 814.725 249.5 804.58 242.193C788.26 232.025 764.698 232.334 750.279 245.76Z" fill="black"/>
<path d="M974.279 230.76C985.69 239.78 991.496 253.601 993.279 267.76C993.414 271.032 993.419 274.298 993.404 277.572C993.408 278.443 993.412 279.314 993.416 280.211C993.414 281.038 993.413 281.865 993.412 282.717C993.411 283.469 993.41 284.222 993.408 284.997C993.279 286.76 993.279 286.76 992.279 287.76C989.143 287.855 986.03 287.885 982.894 287.873C981.416 287.874 981.416 287.874 979.908 287.874C976.635 287.873 973.361 287.865 970.088 287.857C967.825 287.856 965.562 287.854 963.299 287.853C957.329 287.849 951.36 287.84 945.391 287.829C939.305 287.818 933.219 287.814 927.133 287.809C915.181 287.798 903.23 287.781 891.279 287.76C892.047 290.157 892.823 292.551 893.603 294.943C893.818 295.616 894.033 296.289 894.255 296.983C898.129 308.802 905.109 315.343 916.029 320.9C929.698 326.121 944.781 324.82 958.279 319.76C964.186 316.934 968.872 313.568 973.279 308.76C977 306.279 978.877 306.296 983.279 306.76C986.29 308.767 987.104 309.989 987.904 313.51C986.35 321.59 980.048 326.164 973.521 330.599C961.696 338.209 948.855 341.153 934.967 341.072C933.44 341.064 933.44 341.064 931.883 341.055C914.721 340.778 901.374 335.028 889.279 322.76C888.704 322.195 888.129 321.631 887.537 321.049C875.286 308.037 873.598 291.186 873.998 274.209C874.611 259.198 880.769 245.542 891.279 234.76C913.947 215.158 949.752 213.283 974.279 230.76ZM901.467 247.447C895.217 255.185 893.222 263.046 891.279 272.76C919.659 272.76 948.039 272.76 977.279 272.76C975.276 260.744 972.803 250.501 962.904 242.947C944.508 230.405 917.392 230.626 901.467 247.447Z" fill="black"/>
<path d="M600.021 228.111C604.697 231.525 609.052 234.92 612.279 239.76C612.609 233.49 612.939 227.22 613.279 220.76C618.559 220.76 623.839 220.76 629.279 220.76C629.348 235.946 629.402 251.131 629.434 266.317C629.45 273.368 629.471 280.419 629.505 287.47C629.538 294.272 629.556 301.073 629.563 307.875C629.569 310.473 629.58 313.071 629.596 315.669C629.618 319.301 629.621 322.933 629.619 326.565C629.63 327.645 629.641 328.725 629.652 329.837C629.648 330.827 629.644 331.817 629.64 332.837C629.642 333.696 629.645 334.555 629.648 335.44C629.192 338.307 628.262 339.665 626.279 341.76C622.588 342.963 620.983 343.104 617.466 341.385C615.279 339.76 615.279 339.76 614.279 338.76C614.122 337.273 614.028 335.78 613.962 334.287C613.921 333.388 613.879 332.489 613.835 331.563C613.796 330.617 613.757 329.671 613.716 328.697C613.673 327.748 613.63 326.798 613.585 325.82C613.479 323.467 613.377 321.113 613.279 318.76C612.757 319.4 612.235 320.041 611.697 320.701C602.635 331.35 591.97 337.761 578.279 340.76C559.061 342.271 541.739 339.732 526.529 327.01C513.722 314.935 508.697 299.294 507.029 282.197C506.523 265.005 512.68 248.262 524.314 235.635C543.871 216.972 577.238 213.299 600.021 228.111ZM535.529 248.385C527.056 258.881 523.055 271.351 524.279 284.76C526.14 297.303 530.865 308.982 541.279 316.76C554.282 324.594 566.891 326.81 581.88 324.111C592.813 320.806 602.123 313.101 607.752 303.158C610.637 297.185 612.488 291.345 613.279 284.76C613.405 283.739 613.405 283.739 613.533 282.697C614.238 270.679 609.81 257.974 602.279 248.76C594.306 239.891 583.207 235.578 571.509 234.506C558.228 233.966 544.784 238.645 535.529 248.385Z" fill="black"/>
<path d="M884.279 111.76C886.904 112.135 886.904 112.135 889.279 112.76C889.671 113.956 890.063 115.152 890.467 116.385C891.07 118.177 891.674 119.968 892.279 121.76C892.643 122.858 893.006 123.956 893.381 125.088C895.724 131.95 898.309 138.053 902.24 144.162C904.341 149.414 902.136 154.627 900.031 159.584C899.73 160.27 899.429 160.956 899.119 161.662C898.81 162.385 898.5 163.107 898.182 163.852C897.201 166.137 896.209 168.417 895.217 170.697C894.546 172.255 893.876 173.813 893.207 175.371C891.573 179.171 889.929 182.967 888.279 186.76C889.156 186.437 890.034 186.114 890.938 185.782C894.214 184.577 897.49 183.373 900.767 182.17C902.181 181.65 903.595 181.131 905.009 180.61C907.049 179.86 909.09 179.11 911.131 178.361C912.356 177.911 913.581 177.461 914.844 176.997C915.978 176.588 917.111 176.18 918.279 175.76C919.346 175.373 920.414 174.987 921.513 174.589C927.247 172.87 931.892 174.804 936.921 177.49C937.576 177.847 938.23 178.204 938.904 178.572C960.252 189.644 983.325 191.33 1006.34 184.385C1028.87 177.118 1047.14 161.926 1058.28 141.131C1062.86 132.07 1065.68 122.543 1068.28 112.76C1070.59 112.135 1070.59 112.135 1073.28 111.76C1074.27 112.42 1075.26 113.08 1076.28 113.76C1074.63 138.023 1060.6 159.285 1043.01 175.282C1022.03 193.222 995.282 199.11 968.279 197.76C954.74 196.557 940.529 192.108 929.174 184.545C924.276 182.515 917.667 186.376 912.998 188.139C911.168 188.819 909.339 189.5 907.51 190.18C904.638 191.252 901.767 192.327 898.899 193.406C896.122 194.449 893.341 195.482 890.56 196.514C889.277 197.001 889.277 197.001 887.968 197.498C880.365 200.307 880.365 200.307 876.279 199.76C875.279 198.76 875.279 198.76 874.955 195.781C875.037 190.774 877.271 186.821 879.463 182.416C880.318 180.594 881.17 178.771 882.019 176.947C883.359 174.101 884.713 171.267 886.117 168.451C892.188 157.373 892.188 157.373 892.338 145.316C890.744 141.529 888.506 138.206 886.279 134.76C883.605 127.842 881.435 121.213 882.279 113.76C882.939 113.1 883.599 112.44 884.279 111.76Z" fill="black"/>
<path d="M1035.61 17.3808C1037.89 19.113 1040.09 20.9088 1042.28 22.7597C1043.1 23.4507 1043.93 24.1416 1044.78 24.8535C1059.19 37.3295 1073.14 57.0922 1075.15 76.6973C1075.22 78.0504 1075.27 79.405 1075.28 80.7598C1072.28 82.7598 1072.28 82.7598 1070.28 82.8223C1066.09 80.5966 1064.8 73.4468 1063.34 69.1665C1058.67 55.7799 1051.33 44.809 1041.28 34.7598C1040.58 34.0637 1039.89 33.3676 1039.17 32.6504C1021.65 16.1576 997.919 8.6961 974.13 9.40819C961.973 10.0877 950.191 13.4131 939.279 18.7597C938.358 19.2006 937.438 19.6415 936.49 20.0957C912.599 32.2763 899.686 53.6597 891.404 78.1973C890.847 79.9607 890.847 79.9607 890.279 81.7598C887.966 82.4473 887.966 82.4473 885.279 82.7598C883.583 81.5762 883.583 81.5762 882.279 79.7598C881.79 63.7739 893.685 45.8546 903.841 34.3848C905.309 32.8327 906.788 31.2904 908.279 29.7597C908.936 29.0521 909.594 28.3444 910.271 27.6152C942.17 -5.88511 998.43 -8.42464 1035.61 17.3808Z" fill="black"/>
<path d="M669.279 220.76C674.889 220.76 680.499 220.76 686.279 220.76C686.394 235.928 686.484 251.097 686.538 266.265C686.564 273.309 686.599 280.352 686.656 287.395C686.711 294.19 686.74 300.985 686.753 307.78C686.762 310.374 686.78 312.969 686.807 315.563C686.844 319.193 686.849 322.822 686.846 326.452C686.864 327.528 686.882 328.604 686.901 329.713C686.85 336.976 686.85 336.976 683.966 340.931C680.439 343.331 678.462 343.444 674.279 342.76C671.914 340.893 670.618 339.439 669.279 336.76C669.186 335.214 669.157 333.664 669.158 332.115C669.157 331.137 669.156 330.158 669.154 329.149C669.158 328.072 669.161 326.994 669.165 325.884C669.165 324.753 669.165 323.621 669.165 322.455C669.165 318.7 669.173 314.945 669.181 311.189C669.183 308.592 669.184 305.994 669.185 303.396C669.189 297.248 669.197 291.099 669.207 284.951C669.218 277.953 669.223 270.954 669.228 263.955C669.239 249.557 669.257 235.158 669.279 220.76Z" fill="black"/>
<path d="M975.279 50.7598C978.154 50.6348 978.154 50.6348 981.279 50.7598C983.832 53.3133 983.519 54.9626 983.539 58.4441C983.53 59.6348 983.53 59.6348 983.522 60.8496C983.524 61.6855 983.526 62.5214 983.527 63.3826C983.531 66.1542 983.52 68.9256 983.509 71.6973C983.508 73.6178 983.508 75.5382 983.508 77.4587C983.506 81.4872 983.498 85.5155 983.485 89.5439C983.468 94.716 983.464 99.888 983.465 105.06C983.464 109.027 983.459 112.994 983.452 116.96C983.448 118.868 983.446 120.775 983.446 122.683C983.444 125.345 983.435 128.007 983.424 130.67C983.425 131.464 983.425 132.258 983.425 133.075C983.393 138.531 983.393 138.531 982.279 140.76C979.305 141.85 978.395 141.798 975.279 140.76C973.691 137.583 974.141 134.158 974.149 130.67C974.148 129.834 974.146 128.998 974.144 128.137C974.14 125.365 974.143 122.594 974.146 119.822C974.145 117.902 974.144 115.981 974.143 114.061C974.142 110.032 974.144 106.004 974.148 101.976C974.154 96.8035 974.151 91.6315 974.145 86.4594C974.141 82.4927 974.142 78.526 974.145 74.5593C974.146 72.6518 974.145 70.7444 974.143 68.8369C974.14 66.1745 974.144 63.5121 974.149 60.8496C974.147 60.0558 974.145 59.2619 974.143 58.4441C974.165 52.9883 974.165 52.9883 975.279 50.7598Z" fill="#40A4D8"/>
<path d="M938.279 64.7598C940.779 64.4473 940.779 64.4473 943.279 64.7598C945.919 67.3999 945.532 68.596 945.538 72.2793C945.544 73.4339 945.55 74.5885 945.557 75.7781C945.553 77.0302 945.549 78.2822 945.544 79.5723C945.546 80.8521 945.548 82.1319 945.55 83.4504C945.553 86.1607 945.549 88.8708 945.54 91.5811C945.528 95.0583 945.535 98.5352 945.547 102.012C945.556 105.324 945.549 108.636 945.544 111.947C945.549 113.199 945.553 114.451 945.557 115.741C945.55 116.896 945.544 118.051 945.538 119.24C945.535 120.77 945.535 120.77 945.533 122.331C945.279 124.76 945.279 124.76 943.279 126.76C940.779 127.072 940.779 127.072 938.279 126.76C936.034 123.392 936.026 122.265 936.02 118.326C936.014 117.215 936.007 116.104 936.001 114.959C936.005 113.759 936.009 112.559 936.013 111.322C936.011 110.091 936.009 108.859 936.007 107.59C936.006 104.316 936.014 101.043 936.025 97.7692C936.029 95.7617 936.025 93.7545 936.018 91.7471C936.006 87.8971 936.007 84.0473 936.013 80.1973C936.009 78.9972 936.005 77.7972 936.001 76.5608C936.007 75.4495 936.014 74.3383 936.02 73.1934C936.022 72.2142 936.023 71.2351 936.025 70.2263C936.279 67.7598 936.279 67.7598 938.279 64.7598Z" fill="#40A4D8"/>
<path d="M957.279 67.7598C959.779 67.4473 959.779 67.4473 962.279 67.7598C964.822 70.3025 964.532 71.2042 964.538 74.7285C964.544 75.763 964.55 76.7975 964.557 77.8633C964.553 78.9841 964.549 80.105 964.544 81.2598C964.546 82.4064 964.548 83.553 964.55 84.7344C964.552 87.1621 964.548 89.5899 964.54 92.0176C964.529 95.7443 964.54 99.4706 964.552 103.197C964.551 105.551 964.548 107.906 964.544 110.26C964.549 111.381 964.553 112.501 964.557 113.656C964.55 114.691 964.544 115.725 964.538 116.791C964.535 118.161 964.535 118.161 964.533 119.559C964.279 121.76 964.279 121.76 962.279 123.76C959.779 124.01 959.779 124.01 957.279 123.76C954.756 121.236 955.026 120.39 955.02 116.899C955.014 115.887 955.007 114.876 955.001 113.834C955.005 112.739 955.009 111.643 955.013 110.514C955.011 109.392 955.009 108.27 955.007 107.114C955.006 104.737 955.01 102.361 955.018 99.9841C955.029 96.3408 955.018 92.698 955.005 89.0547C955.007 86.7493 955.009 84.444 955.013 82.1387C955.009 81.0449 955.005 79.9511 955.001 78.8241C955.007 77.8097 955.014 76.7954 955.02 75.7502C955.022 74.8569 955.023 73.9636 955.025 73.0432C955.279 70.7598 955.279 70.7598 957.279 67.7598Z" fill="#40A4D8"/>
<path d="M997.779 67.4473C999.016 67.602 999.016 67.602 1000.28 67.7598C1002.44 71.0029 1002.53 71.8983 1002.54 75.6426C1002.54 76.6337 1002.55 77.6248 1002.56 78.646C1002.55 79.7148 1002.55 80.7836 1002.54 81.8848C1002.55 82.9832 1002.55 84.0817 1002.55 85.2134C1002.55 87.5368 1002.55 89.8602 1002.54 92.1836C1002.53 95.7456 1002.54 99.3071 1002.55 102.869C1002.55 105.124 1002.55 107.38 1002.54 109.635C1002.55 110.704 1002.55 111.772 1002.56 112.874C1002.55 113.865 1002.54 114.856 1002.54 115.877C1002.54 117.186 1002.54 117.186 1002.53 118.521C1002.28 120.76 1002.28 120.76 1000.28 123.76C997.779 124.072 997.779 124.072 995.279 123.76C992.736 121.217 993.026 120.315 993.02 116.791C993.014 115.757 993.007 114.722 993.001 113.656C993.005 112.535 993.009 111.415 993.013 110.26C993.011 109.113 993.009 107.967 993.007 106.785C993.006 104.357 993.01 101.93 993.018 99.502C993.029 95.7752 993.018 92.049 993.005 88.3223C993.007 85.9681 993.009 83.6139 993.013 81.2598C993.009 80.1389 993.005 79.0181 993.001 77.8633C993.007 76.8288 993.014 75.7943 993.02 74.7285C993.022 73.8152 993.023 72.9019 993.025 71.9609C993.409 68.6347 994.52 67.8546 997.779 67.4473Z" fill="#40A4D8"/>
<path d="M1016.84 64.5723C1019.28 64.7598 1019.28 64.7598 1020.28 65.7598C1020.38 67.6261 1020.41 69.4962 1020.41 71.3652C1020.41 72.5632 1020.41 73.7611 1020.42 74.9954C1020.42 76.2995 1020.41 77.6036 1020.41 78.9473C1020.41 80.2887 1020.41 81.63 1020.41 82.9714C1020.42 85.786 1020.41 88.6005 1020.41 91.415C1020.4 95.0302 1020.41 98.6452 1020.41 102.26C1020.42 105.031 1020.42 107.802 1020.41 110.573C1020.41 112.557 1020.41 114.54 1020.42 116.524C1020.41 117.722 1020.41 118.92 1020.41 120.154C1020.41 121.745 1020.41 121.745 1020.41 123.368C1020.28 125.76 1020.28 125.76 1019.28 126.76C1017.28 126.801 1015.28 126.802 1013.28 126.76C1011.97 124.135 1012.14 122.179 1012.13 119.24C1012.13 118.086 1012.12 116.931 1012.11 115.741C1012.11 114.489 1012.11 113.237 1012.11 111.947C1012.11 110.028 1012.11 110.028 1012.1 108.069C1012.09 105.359 1012.09 102.649 1012.09 99.9385C1012.09 96.4613 1012.08 92.9843 1012.06 89.5072C1012.05 86.1955 1012.05 82.8839 1012.05 79.5723C1012.04 78.3202 1012.03 77.0681 1012.03 75.7781C1012.03 74.6235 1012.03 73.4689 1012.04 72.2793C1012.03 71.2594 1012.03 70.2395 1012.03 69.1887C1012.39 65.6875 1013.35 64.828 1016.84 64.5723Z" fill="#40A4D8"/>
<path d="M683.279 173.76C686.432 175.533 687.788 176.956 689.654 180.01C690.522 183.831 690.424 187.004 689.279 190.76C687.221 193.782 685.7 195.338 682.158 196.389C678.291 197.008 675.669 196.882 671.904 195.697C668.598 193.257 667.516 191.69 666.279 187.76C665.906 182.725 666.544 179.683 669.716 175.697C673.857 172.817 678.452 172.89 683.279 173.76Z" fill="black"/>
<path d="M925.279 78.7595C927.192 80.6724 926.443 84.1818 926.447 86.7869C926.45 87.491 926.453 88.1951 926.457 88.9206C926.462 90.4127 926.464 91.9048 926.464 93.397C926.466 95.684 926.484 97.9706 926.503 100.258C926.506 101.705 926.508 103.152 926.509 104.599C926.516 105.286 926.524 105.972 926.531 106.68C926.508 111.531 926.508 111.531 924.279 113.76C922.299 113.43 920.319 113.1 918.279 112.76C918.279 101.54 918.279 90.3195 918.279 78.7595C920.962 77.4177 922.432 78.0295 925.279 78.7595Z" fill="#40A4D8"/>
<path d="M1033.28 77.7598C1037.83 78.3153 1037.83 78.3153 1039.28 79.7598C1039.37 82.2081 1039.39 84.628 1039.38 87.0762C1039.37 87.8072 1039.37 88.5383 1039.37 89.2915C1039.37 91.6351 1039.35 93.9787 1039.34 96.3223C1039.34 97.9076 1039.33 99.4928 1039.33 101.078C1039.32 104.972 1039.3 108.866 1039.28 112.76C1036.4 113.385 1036.4 113.385 1033.28 113.76C1030.37 110.855 1031.02 108.692 1031.01 104.635C1031.01 103.932 1031.01 103.229 1031.01 102.505C1031.01 101.019 1031.01 99.533 1031.02 98.0469C1031.03 95.7686 1031.02 93.4911 1031.01 91.2129C1031.01 89.7702 1031.01 88.3275 1031.01 86.8848C1031.02 85.5673 1031.02 84.2499 1031.02 82.8926C1031.28 79.7598 1031.28 79.7598 1033.28 77.7598Z" fill="#40A4D8"/>
<path d="M1055.9 86.0095C1056.69 86.257 1057.47 86.5045 1058.28 86.7595C1059.79 89.7782 1059.46 92.8895 1059.47 96.197C1059.48 96.8783 1059.49 97.5596 1059.5 98.2615C1059.51 101.988 1059.4 103.579 1057.28 106.76C1054.78 107.072 1054.78 107.072 1052.28 106.76C1049.66 104.14 1049.99 102.211 1049.96 98.6384C1049.96 97.8534 1049.96 97.0684 1049.97 96.2595C1049.95 95.4745 1049.93 94.6895 1049.92 93.8806C1049.92 91.6033 1049.92 91.6033 1050.28 87.7595C1053.28 85.7595 1053.28 85.7595 1055.9 86.0095Z" fill="#40A4D8"/>
<path d="M901.279 85.7598C905.835 86.3153 905.835 86.3153 907.279 87.7598C907.406 90.5839 907.464 93.3727 907.467 96.1973C907.479 96.9868 907.491 97.7764 907.504 98.5898C907.509 100.648 907.401 102.705 907.279 104.76C905.279 106.76 905.279 106.76 902.717 106.947C900.279 106.76 900.279 106.76 899.279 105.76C899.152 102.77 899.094 99.8128 899.092 96.8223C899.079 95.985 899.067 95.1478 899.054 94.2852C899.053 93.484 899.051 92.6829 899.049 91.8574C899.044 91.1202 899.04 90.3829 899.036 89.6233C899.279 87.7598 899.279 87.7598 901.279 85.7598Z" fill="#40A4D8"/>
<path d="M1075.03 92.6347C1076.14 93.1916 1076.14 93.1916 1077.28 93.7597C1077.28 96.0697 1077.28 98.3797 1077.28 100.76C1073.9 101.385 1073.9 101.385 1070.28 101.76C1068.28 99.7597 1068.28 99.7597 1068.15 96.6347C1068.2 95.686 1068.24 94.7372 1068.28 93.7597C1071.01 91.9404 1071.81 91.6121 1075.03 92.6347Z" fill="#40A4D8"/>
<path d="M884.779 92.6348C888.279 92.7598 888.279 92.7598 889.279 93.7598C889.32 96.0927 889.321 98.4268 889.279 100.76C885.904 101.385 885.904 101.385 882.279 101.76C880.279 99.7598 880.279 99.7598 880.091 96.6973C880.362 92.4524 880.419 92.7905 884.779 92.6348Z" fill="#40A4D8"/>
</svg>
