<svg width="1107" height="459" viewBox="0 0 1107 459" fill="none" xmlns="http://www.w3.org/2000/svg">
<path d="M81.4356 219.009C114.589 219.009 137.205 240.34 137.205 279.404C137.205 318.211 113.304 340.313 80.9216 340.313C59.3336 340.313 42.6286 330.033 35.6896 313.328V387.087H21.0406V221.322H35.1756V246.251C43.3996 229.289 60.8756 219.009 81.4356 219.009ZM78.3516 326.435C103.024 326.435 121.014 309.473 121.271 279.404C121.785 249.335 103.795 233.144 78.3516 233.144C55.9926 233.144 35.9466 246.508 35.9466 276.834V279.404C35.9466 309.987 53.4226 326.435 78.3516 326.435ZM183.551 247.793C189.462 231.345 204.625 217.21 226.727 219.266V234.943C200.77 231.859 185.607 250.877 185.35 277.348L184.579 338H169.93V221.322H183.551V247.793ZM305.281 341.341C270.329 341.341 245.143 316.412 245.143 279.918C245.143 243.424 270.586 217.981 305.281 217.981C340.233 217.981 365.676 243.424 365.676 279.918C365.676 316.412 340.233 341.341 305.281 341.341ZM305.281 326.692C331.752 326.692 350.256 307.674 349.742 279.918C349.485 252.419 331.752 232.63 305.281 232.63C279.067 232.63 261.334 252.419 260.82 279.918C260.306 307.674 279.067 326.692 305.281 326.692ZM455.893 219.009C489.046 219.009 511.662 240.34 511.662 279.404C511.662 318.211 487.761 340.313 455.379 340.313C433.791 340.313 417.086 330.033 410.147 313.328V387.087H395.498V221.322H409.633V246.251C417.857 229.289 435.333 219.009 455.893 219.009ZM452.809 326.435C477.481 326.435 495.471 309.473 495.728 279.404C496.242 249.335 478.252 233.144 452.809 233.144C430.45 233.144 410.404 246.508 410.404 276.834V279.404C410.404 309.987 427.88 326.435 452.809 326.435Z" fill="#EBBF2B"/>
<path d="M853.279 172.76C858.889 172.76 864.499 172.76 870.279 172.76C870.348 194.056 870.402 215.353 870.434 236.65C870.45 246.538 870.471 256.426 870.505 266.314C870.535 274.932 870.554 283.55 870.561 292.168C870.565 296.732 870.574 301.295 870.596 305.859C870.616 310.154 870.623 314.449 870.618 318.744C870.619 320.321 870.625 321.898 870.637 323.474C870.651 325.627 870.648 327.779 870.64 329.932C870.642 331.137 870.645 332.342 870.648 333.583C870.242 337.08 869.378 338.962 867.279 341.76C863.921 343.439 860.57 343.154 857.029 342.072C854.578 340.234 854.206 338.69 853.279 335.76C852.914 332.994 852.773 330.233 852.654 327.447C852.615 326.707 852.577 325.966 852.537 325.203C852.443 323.389 852.36 321.574 852.279 319.76C851.745 320.412 851.212 321.064 850.662 321.736C842.077 331.806 831.45 338.457 818.279 340.76C798.775 342.071 781.962 339.873 766.404 327.01C754.189 315.423 748.976 299.59 748.15 283.201C747.748 264.75 752.679 248.131 765.373 234.514C776.861 223.504 791.54 219.164 807.154 219.322C808.205 219.33 809.257 219.337 810.34 219.345C825.012 219.656 837.546 224.538 848.279 234.76C849.599 236.74 850.919 238.72 852.279 240.76C852.609 218.32 852.939 195.88 853.279 172.76ZM779.279 245.76C778.589 246.397 777.9 247.033 777.189 247.689C768.772 256.247 765.227 267.46 765.029 279.322C765.186 292.039 768.804 303.986 777.404 313.572C786.971 322.416 799.483 325.4 812.142 325.064C824.06 324.398 833.812 319.35 842.119 310.885C851.311 299.657 853.443 285.812 852.279 271.76C850.148 259.421 843.725 249.5 833.58 242.193C817.26 232.025 793.698 232.334 779.279 245.76Z" fill="black"/>
<path d="M1003.28 230.76C1014.69 239.78 1020.5 253.601 1022.28 267.76C1022.41 271.032 1022.42 274.298 1022.4 277.572C1022.41 278.443 1022.41 279.314 1022.42 280.211C1022.41 281.038 1022.41 281.865 1022.41 282.717C1022.41 283.469 1022.41 284.222 1022.41 284.997C1022.28 286.76 1022.28 286.76 1021.28 287.76C1018.14 287.855 1015.03 287.885 1011.89 287.873C1010.42 287.874 1010.42 287.874 1008.91 287.874C1005.63 287.873 1002.36 287.865 999.088 287.857C996.825 287.856 994.562 287.854 992.299 287.853C986.329 287.849 980.36 287.84 974.391 287.829C968.305 287.818 962.219 287.814 956.133 287.809C944.181 287.798 932.23 287.781 920.279 287.76C921.047 290.157 921.823 292.551 922.603 294.943C922.818 295.616 923.033 296.289 923.255 296.983C927.129 308.802 934.109 315.343 945.029 320.9C958.698 326.121 973.781 324.82 987.279 319.76C993.186 316.934 997.872 313.568 1002.28 308.76C1006 306.279 1007.88 306.296 1012.28 306.76C1015.29 308.767 1016.1 309.989 1016.9 313.51C1015.35 321.59 1009.05 326.164 1002.52 330.599C990.696 338.209 977.855 341.153 963.967 341.072C962.44 341.064 962.44 341.064 960.883 341.055C943.721 340.778 930.374 335.028 918.279 322.76C917.704 322.195 917.129 321.631 916.537 321.049C904.286 308.037 902.598 291.186 902.998 274.209C903.611 259.198 909.769 245.542 920.279 234.76C942.947 215.158 978.752 213.283 1003.28 230.76ZM930.467 247.447C924.217 255.185 922.222 263.046 920.279 272.76C948.659 272.76 977.039 272.76 1006.28 272.76C1004.28 260.744 1001.8 250.501 991.904 242.947C973.508 230.405 946.392 230.626 930.467 247.447Z" fill="black"/>
<path d="M629.021 228.111C633.697 231.525 638.052 234.92 641.279 239.76C641.609 233.49 641.939 227.22 642.279 220.76C647.559 220.76 652.839 220.76 658.279 220.76C658.348 235.946 658.402 251.131 658.434 266.317C658.45 273.368 658.471 280.419 658.505 287.47C658.538 294.272 658.556 301.073 658.563 307.875C658.569 310.473 658.58 313.071 658.596 315.669C658.618 319.301 658.621 322.933 658.619 326.565C658.63 327.645 658.641 328.725 658.652 329.837C658.648 330.827 658.644 331.817 658.64 332.837C658.642 333.696 658.645 334.555 658.648 335.44C658.192 338.307 657.262 339.665 655.279 341.76C651.588 342.963 649.983 343.104 646.466 341.385C644.279 339.76 644.279 339.76 643.279 338.76C643.122 337.273 643.028 335.78 642.962 334.287C642.921 333.388 642.879 332.489 642.835 331.563C642.796 330.617 642.757 329.671 642.716 328.697C642.673 327.748 642.63 326.798 642.585 325.82C642.479 323.467 642.377 321.113 642.279 318.76C641.757 319.4 641.235 320.041 640.697 320.701C631.635 331.35 620.97 337.761 607.279 340.76C588.061 342.271 570.739 339.732 555.529 327.01C542.722 314.935 537.697 299.294 536.029 282.197C535.523 265.005 541.68 248.262 553.314 235.635C572.871 216.972 606.238 213.299 629.021 228.111ZM564.529 248.385C556.056 258.881 552.055 271.351 553.279 284.76C555.14 297.303 559.865 308.982 570.279 316.76C583.282 324.594 595.891 326.81 610.88 324.111C621.813 320.806 631.123 313.101 636.752 303.158C639.637 297.185 641.488 291.345 642.279 284.76C642.405 283.739 642.405 283.739 642.533 282.697C643.238 270.679 638.81 257.974 631.279 248.76C623.306 239.891 612.207 235.578 600.509 234.506C587.228 233.966 573.784 238.645 564.529 248.385Z" fill="black"/>
<path d="M913.279 111.76C915.904 112.135 915.904 112.135 918.279 112.76C918.671 113.956 919.063 115.152 919.467 116.385C920.07 118.177 920.674 119.968 921.279 121.76C921.643 122.858 922.006 123.956 922.381 125.088C924.724 131.95 927.309 138.053 931.24 144.162C933.341 149.414 931.136 154.627 929.031 159.584C928.73 160.27 928.429 160.956 928.119 161.662C927.81 162.385 927.5 163.107 927.182 163.852C926.201 166.137 925.209 168.417 924.217 170.697C923.546 172.255 922.876 173.813 922.207 175.371C920.573 179.171 918.929 182.967 917.279 186.76C918.156 186.437 919.034 186.114 919.938 185.782C923.214 184.577 926.49 183.373 929.767 182.17C931.181 181.65 932.595 181.131 934.009 180.61C936.049 179.86 938.09 179.11 940.131 178.361C941.356 177.911 942.581 177.461 943.844 176.997C944.978 176.588 946.111 176.18 947.279 175.76C948.346 175.373 949.414 174.987 950.513 174.589C956.247 172.87 960.892 174.804 965.921 177.49C966.576 177.847 967.23 178.204 967.904 178.572C989.252 189.644 1012.33 191.33 1035.34 184.385C1057.87 177.118 1076.14 161.926 1087.28 141.131C1091.86 132.07 1094.68 122.543 1097.28 112.76C1099.59 112.135 1099.59 112.135 1102.28 111.76C1103.27 112.42 1104.26 113.08 1105.28 113.76C1103.63 138.023 1089.6 159.285 1072.01 175.282C1051.03 193.222 1024.28 199.11 997.279 197.76C983.74 196.557 969.529 192.108 958.174 184.545C953.276 182.515 946.667 186.376 941.998 188.139C940.168 188.819 938.339 189.5 936.51 190.18C933.638 191.252 930.767 192.327 927.899 193.406C925.122 194.449 922.341 195.482 919.56 196.514C918.277 197.001 918.277 197.001 916.968 197.498C909.365 200.307 909.365 200.307 905.279 199.76C904.279 198.76 904.279 198.76 903.955 195.781C904.037 190.774 906.271 186.821 908.463 182.416C909.318 180.594 910.17 178.771 911.019 176.947C912.359 174.101 913.713 171.267 915.117 168.451C921.188 157.373 921.188 157.373 921.338 145.316C919.744 141.529 917.506 138.206 915.279 134.76C912.605 127.842 910.435 121.213 911.279 113.76C911.939 113.1 912.599 112.44 913.279 111.76Z" fill="black"/>
<path d="M1064.61 17.3808C1066.89 19.113 1069.09 20.9088 1071.28 22.7597C1072.1 23.4507 1072.93 24.1416 1073.78 24.8535C1088.19 37.3295 1102.14 57.0922 1104.15 76.6973C1104.22 78.0504 1104.27 79.405 1104.28 80.7598C1101.28 82.7598 1101.28 82.7598 1099.28 82.8223C1095.09 80.5966 1093.8 73.4468 1092.34 69.1665C1087.67 55.7799 1080.33 44.809 1070.28 34.7598C1069.58 34.0637 1068.89 33.3676 1068.17 32.6504C1050.65 16.1576 1026.92 8.6961 1003.13 9.40819C990.973 10.0877 979.191 13.4131 968.279 18.7597C967.358 19.2006 966.438 19.6415 965.49 20.0957C941.599 32.2763 928.686 53.6597 920.404 78.1973C919.847 79.9607 919.847 79.9607 919.279 81.7598C916.966 82.4473 916.966 82.4473 914.279 82.7598C912.583 81.5762 912.583 81.5762 911.279 79.7598C910.79 63.7739 922.685 45.8546 932.841 34.3848C934.309 32.8327 935.788 31.2904 937.279 29.7597C937.936 29.0521 938.594 28.3444 939.271 27.6152C971.17 -5.88511 1027.43 -8.42464 1064.61 17.3808Z" fill="black"/>
<path d="M698.279 220.76C703.889 220.76 709.499 220.76 715.279 220.76C715.394 235.928 715.484 251.097 715.538 266.265C715.564 273.309 715.599 280.352 715.656 287.395C715.711 294.19 715.74 300.985 715.753 307.78C715.762 310.374 715.78 312.969 715.807 315.563C715.844 319.193 715.849 322.822 715.846 326.452C715.864 327.528 715.882 328.604 715.901 329.713C715.85 336.976 715.85 336.976 712.966 340.931C709.439 343.331 707.462 343.444 703.279 342.76C700.914 340.893 699.618 339.439 698.279 336.76C698.186 335.214 698.157 333.664 698.158 332.115C698.157 331.137 698.156 330.158 698.154 329.149C698.158 328.072 698.161 326.994 698.165 325.884C698.165 324.753 698.165 323.621 698.165 322.455C698.165 318.7 698.173 314.945 698.181 311.189C698.183 308.592 698.184 305.994 698.185 303.396C698.189 297.248 698.197 291.099 698.207 284.951C698.218 277.953 698.223 270.954 698.228 263.955C698.239 249.557 698.257 235.158 698.279 220.76Z" fill="black"/>
<path d="M1004.28 50.7598C1007.15 50.6348 1007.15 50.6348 1010.28 50.7598C1012.83 53.3133 1012.52 54.9626 1012.54 58.4441C1012.53 59.6348 1012.53 59.6348 1012.52 60.8496C1012.52 61.6855 1012.53 62.5214 1012.53 63.3826C1012.53 66.1542 1012.52 68.9256 1012.51 71.6973C1012.51 73.6178 1012.51 75.5382 1012.51 77.4587C1012.51 81.4872 1012.5 85.5155 1012.48 89.5439C1012.47 94.716 1012.46 99.888 1012.46 105.06C1012.46 109.027 1012.46 112.994 1012.45 116.96C1012.45 118.868 1012.45 120.775 1012.45 122.683C1012.44 125.345 1012.43 128.007 1012.42 130.67C1012.42 131.464 1012.42 132.258 1012.43 133.075C1012.39 138.531 1012.39 138.531 1011.28 140.76C1008.31 141.85 1007.39 141.798 1004.28 140.76C1002.69 137.583 1003.14 134.158 1003.15 130.67C1003.15 129.834 1003.15 128.998 1003.14 128.137C1003.14 125.365 1003.14 122.594 1003.15 119.822C1003.15 117.902 1003.14 115.981 1003.14 114.061C1003.14 110.032 1003.14 106.004 1003.15 101.976C1003.15 96.8035 1003.15 91.6315 1003.14 86.4594C1003.14 82.4927 1003.14 78.526 1003.15 74.5593C1003.15 72.6518 1003.14 70.7444 1003.14 68.8369C1003.14 66.1745 1003.14 63.5121 1003.15 60.8496C1003.15 60.0558 1003.15 59.2619 1003.14 58.4441C1003.16 52.9883 1003.16 52.9883 1004.28 50.7598Z" fill="#EBBF2B"/>
<path d="M967.279 64.7598C969.779 64.4473 969.779 64.4473 972.279 64.7598C974.919 67.3999 974.532 68.596 974.538 72.2793C974.544 73.4339 974.55 74.5885 974.557 75.7781C974.553 77.0302 974.549 78.2822 974.544 79.5723C974.546 80.8521 974.548 82.1319 974.55 83.4504C974.553 86.1607 974.549 88.8708 974.54 91.5811C974.528 95.0583 974.535 98.5352 974.547 102.012C974.556 105.324 974.549 108.636 974.544 111.947C974.549 113.199 974.553 114.451 974.557 115.741C974.55 116.896 974.544 118.051 974.538 119.24C974.535 120.77 974.535 120.77 974.533 122.331C974.279 124.76 974.279 124.76 972.279 126.76C969.779 127.072 969.779 127.072 967.279 126.76C965.034 123.392 965.026 122.265 965.02 118.326C965.014 117.215 965.007 116.104 965.001 114.959C965.005 113.759 965.009 112.559 965.013 111.322C965.011 110.091 965.009 108.859 965.007 107.59C965.006 104.316 965.014 101.043 965.025 97.7692C965.029 95.7617 965.025 93.7545 965.018 91.7471C965.006 87.8971 965.007 84.0473 965.013 80.1973C965.009 78.9972 965.005 77.7972 965.001 76.5608C965.007 75.4495 965.014 74.3383 965.02 73.1934C965.022 72.2142 965.023 71.2351 965.025 70.2263C965.279 67.7598 965.279 67.7598 967.279 64.7598Z" fill="#EBBF2B"/>
<path d="M986.279 67.7598C988.779 67.4473 988.779 67.4473 991.279 67.7598C993.822 70.3025 993.532 71.2042 993.538 74.7285C993.544 75.763 993.55 76.7975 993.557 77.8633C993.553 78.9841 993.549 80.105 993.544 81.2598C993.546 82.4064 993.548 83.553 993.55 84.7344C993.552 87.1621 993.548 89.5899 993.54 92.0176C993.529 95.7443 993.54 99.4706 993.552 103.197C993.551 105.551 993.548 107.906 993.544 110.26C993.549 111.381 993.553 112.501 993.557 113.656C993.55 114.691 993.544 115.725 993.538 116.791C993.535 118.161 993.535 118.161 993.533 119.559C993.279 121.76 993.279 121.76 991.279 123.76C988.779 124.01 988.779 124.01 986.279 123.76C983.756 121.236 984.026 120.39 984.02 116.899C984.014 115.887 984.007 114.876 984.001 113.834C984.005 112.739 984.009 111.643 984.013 110.514C984.011 109.392 984.009 108.27 984.007 107.114C984.006 104.737 984.01 102.361 984.018 99.9841C984.029 96.3408 984.018 92.698 984.005 89.0547C984.007 86.7493 984.009 84.444 984.013 82.1387C984.009 81.0449 984.005 79.9511 984.001 78.8241C984.007 77.8097 984.014 76.7954 984.02 75.7502C984.022 74.8569 984.023 73.9636 984.025 73.0432C984.279 70.7598 984.279 70.7598 986.279 67.7598Z" fill="#EBBF2B"/>
<path d="M1026.78 67.4473C1028.02 67.602 1028.02 67.602 1029.28 67.7598C1031.44 71.0029 1031.53 71.8983 1031.54 75.6426C1031.54 76.6337 1031.55 77.6248 1031.56 78.646C1031.55 79.7148 1031.55 80.7836 1031.54 81.8848C1031.55 82.9832 1031.55 84.0817 1031.55 85.2134C1031.55 87.5368 1031.55 89.8602 1031.54 92.1836C1031.53 95.7456 1031.54 99.3071 1031.55 102.869C1031.55 105.124 1031.55 107.38 1031.54 109.635C1031.55 110.704 1031.55 111.772 1031.56 112.874C1031.55 113.865 1031.54 114.856 1031.54 115.877C1031.54 117.186 1031.54 117.186 1031.53 118.521C1031.28 120.76 1031.28 120.76 1029.28 123.76C1026.78 124.072 1026.78 124.072 1024.28 123.76C1021.74 121.217 1022.03 120.315 1022.02 116.791C1022.01 115.757 1022.01 114.722 1022 113.656C1022.01 112.535 1022.01 111.415 1022.01 110.26C1022.01 109.113 1022.01 107.967 1022.01 106.785C1022.01 104.357 1022.01 101.93 1022.02 99.502C1022.03 95.7752 1022.02 92.049 1022.01 88.3223C1022.01 85.9681 1022.01 83.6139 1022.01 81.2598C1022.01 80.1389 1022.01 79.0181 1022 77.8633C1022.01 76.8288 1022.01 75.7943 1022.02 74.7285C1022.02 73.8152 1022.02 72.9019 1022.02 71.9609C1022.41 68.6347 1023.52 67.8546 1026.78 67.4473Z" fill="#EBBF2B"/>
<path d="M1045.84 64.5723C1048.28 64.7598 1048.28 64.7598 1049.28 65.7598C1049.38 67.6261 1049.41 69.4962 1049.41 71.3652C1049.41 72.5632 1049.41 73.7611 1049.42 74.9954C1049.42 76.2995 1049.41 77.6036 1049.41 78.9473C1049.41 80.2887 1049.41 81.63 1049.41 82.9714C1049.42 85.786 1049.41 88.6005 1049.41 91.415C1049.4 95.0302 1049.41 98.6452 1049.41 102.26C1049.42 105.031 1049.42 107.802 1049.41 110.573C1049.41 112.557 1049.41 114.54 1049.42 116.524C1049.41 117.722 1049.41 118.92 1049.41 120.154C1049.41 121.745 1049.41 121.745 1049.41 123.368C1049.28 125.76 1049.28 125.76 1048.28 126.76C1046.28 126.801 1044.28 126.802 1042.28 126.76C1040.97 124.135 1041.14 122.179 1041.13 119.24C1041.13 118.086 1041.12 116.931 1041.11 115.741C1041.11 114.489 1041.11 113.237 1041.11 111.947C1041.11 110.028 1041.11 110.028 1041.1 108.069C1041.09 105.359 1041.09 102.649 1041.09 99.9385C1041.09 96.4613 1041.08 92.9843 1041.06 89.5072C1041.05 86.1955 1041.05 82.8839 1041.05 79.5723C1041.04 78.3202 1041.03 77.0681 1041.03 75.7781C1041.03 74.6235 1041.03 73.4689 1041.04 72.2793C1041.03 71.2594 1041.03 70.2395 1041.03 69.1887C1041.39 65.6875 1042.35 64.828 1045.84 64.5723Z" fill="#EBBF2B"/>
<path d="M712.279 173.76C715.432 175.533 716.788 176.956 718.654 180.01C719.522 183.831 719.424 187.004 718.279 190.76C716.221 193.782 714.7 195.338 711.158 196.389C707.291 197.008 704.669 196.882 700.904 195.697C697.598 193.257 696.516 191.69 695.279 187.76C694.906 182.725 695.544 179.683 698.716 175.697C702.857 172.817 707.452 172.89 712.279 173.76Z" fill="black"/>
<path d="M954.279 78.7595C956.192 80.6724 955.443 84.1818 955.447 86.7869C955.45 87.491 955.453 88.1951 955.457 88.9206C955.462 90.4127 955.464 91.9048 955.464 93.397C955.466 95.684 955.484 97.9706 955.503 100.258C955.506 101.705 955.508 103.152 955.509 104.599C955.516 105.286 955.524 105.972 955.531 106.68C955.508 111.531 955.508 111.531 953.279 113.76C951.299 113.43 949.319 113.1 947.279 112.76C947.279 101.54 947.279 90.3195 947.279 78.7595C949.962 77.4177 951.432 78.0295 954.279 78.7595Z" fill="#EBBF2B"/>
<path d="M1062.28 77.7598C1066.83 78.3153 1066.83 78.3153 1068.28 79.7598C1068.37 82.2081 1068.39 84.628 1068.38 87.0762C1068.37 87.8072 1068.37 88.5383 1068.37 89.2915C1068.37 91.6351 1068.35 93.9787 1068.34 96.3223C1068.34 97.9076 1068.33 99.4928 1068.33 101.078C1068.32 104.972 1068.3 108.866 1068.28 112.76C1065.4 113.385 1065.4 113.385 1062.28 113.76C1059.37 110.855 1060.02 108.692 1060.01 104.635C1060.01 103.932 1060.01 103.229 1060.01 102.505C1060.01 101.019 1060.01 99.533 1060.02 98.0469C1060.03 95.7686 1060.02 93.4911 1060.01 91.2129C1060.01 89.7702 1060.01 88.3275 1060.01 86.8848C1060.02 85.5673 1060.02 84.2499 1060.02 82.8926C1060.28 79.7598 1060.28 79.7598 1062.28 77.7598Z" fill="#EBBF2B"/>
<path d="M1084.9 86.0095C1085.69 86.257 1086.47 86.5045 1087.28 86.7595C1088.79 89.7782 1088.46 92.8895 1088.47 96.197C1088.48 96.8783 1088.49 97.5596 1088.5 98.2615C1088.51 101.988 1088.4 103.579 1086.28 106.76C1083.78 107.072 1083.78 107.072 1081.28 106.76C1078.66 104.14 1078.99 102.211 1078.96 98.6384C1078.96 97.8534 1078.96 97.0684 1078.97 96.2595C1078.95 95.4745 1078.93 94.6895 1078.92 93.8806C1078.92 91.6033 1078.92 91.6033 1079.28 87.7595C1082.28 85.7595 1082.28 85.7595 1084.9 86.0095Z" fill="#EBBF2B"/>
<path d="M930.279 85.7598C934.835 86.3153 934.835 86.3153 936.279 87.7598C936.406 90.5839 936.464 93.3727 936.467 96.1973C936.479 96.9868 936.491 97.7764 936.504 98.5898C936.509 100.648 936.401 102.705 936.279 104.76C934.279 106.76 934.279 106.76 931.717 106.947C929.279 106.76 929.279 106.76 928.279 105.76C928.152 102.77 928.094 99.8128 928.092 96.8223C928.079 95.985 928.067 95.1478 928.054 94.2852C928.053 93.484 928.051 92.6829 928.049 91.8574C928.044 91.1202 928.04 90.3829 928.036 89.6233C928.279 87.7598 928.279 87.7598 930.279 85.7598Z" fill="#EBBF2B"/>
<path d="M1104.03 92.6347C1105.14 93.1916 1105.14 93.1916 1106.28 93.7597C1106.28 96.0697 1106.28 98.3797 1106.28 100.76C1102.9 101.385 1102.9 101.385 1099.28 101.76C1097.28 99.7597 1097.28 99.7597 1097.15 96.6347C1097.2 95.686 1097.24 94.7372 1097.28 93.7597C1100.01 91.9404 1100.81 91.6121 1104.03 92.6347Z" fill="#EBBF2B"/>
<path d="M913.779 92.6348C917.279 92.7598 917.279 92.7598 918.279 93.7598C918.32 96.0927 918.321 98.4268 918.279 100.76C914.904 101.385 914.904 101.385 911.279 101.76C909.279 99.7598 909.279 99.7598 909.091 96.6973C909.362 92.4524 909.419 92.7905 913.779 92.6348Z" fill="#EBBF2B"/>
</svg>
