<svg width="1200" height="401" viewBox="0 0 1200 401" fill="none" xmlns="http://www.w3.org/2000/svg">
<g clip-path="url(#clip0_1284_154)">
<path d="M342.797 231.071C354.058 240.591 361.498 254.274 363 269C364.283 288.343 361.768 307.044 348.75 322.313C337.541 333.95 323.541 339.976 307.397 340.293C292.916 340.393 282.174 338.376 270 330C269.092 329.381 268.185 328.763 267.25 328.125C265.15 326.142 263.571 324.183 261.859 321.867C261.323 321.144 260.786 320.421 260.233 319.675C259.826 319.123 259.419 318.57 259 318C258.996 318.981 258.993 319.962 258.989 320.972C258.952 330.213 258.894 339.453 258.816 348.694C258.776 353.445 258.744 358.195 258.729 362.946C258.714 367.53 258.679 372.114 258.632 376.698C258.617 378.448 258.609 380.197 258.608 381.947C258.606 384.396 258.579 386.845 258.546 389.294C258.551 390.018 258.556 390.743 258.561 391.489C258.49 394.924 258.231 396.704 256.091 399.449C253.821 401.133 252.79 401.544 250 401.5C249.34 401.51 248.68 401.521 248 401.531C245.019 400.74 243.902 399.414 242 397C241.508 393.744 241.508 393.744 241.519 389.8C241.515 389.073 241.512 388.347 241.509 387.599C241.502 385.165 241.524 382.732 241.546 380.298C241.547 378.554 241.546 376.809 241.544 375.065C241.543 370.327 241.566 365.59 241.594 360.853C241.619 355.903 241.622 350.953 241.626 346.003C241.639 336.628 241.672 327.254 241.712 317.879C241.756 307.207 241.779 296.535 241.799 285.863C241.84 263.908 241.912 241.954 242 220C247.28 220 252.56 220 258 220C258.33 227.26 258.66 234.52 259 242C259.928 240.68 260.856 239.36 261.812 238C281.362 213.033 318.74 213.263 342.797 231.071ZM270.25 248.75C263.019 257.525 259.604 267.522 259.687 278.813C259.693 279.608 259.699 280.403 259.704 281.223C259.922 291.778 263.157 299.267 269 308C269.598 308.908 270.196 309.815 270.812 310.75C279.053 319.226 290.712 324.06 302.437 324.313C314.792 324.197 325.055 320.34 334.152 312.035C343.763 302.139 346.302 290.447 346.315 277.086C346.118 265.536 342.746 255.695 335 247C325.391 237.712 314.4 234.71 301.302 234.683C289.114 234.907 278.565 239.88 270.25 248.75Z" fill="#FF7300"/>
<path d="M947 172C952.61 172 958.22 172 964 172C964.07 193.297 964.123 214.593 964.156 235.89C964.171 245.778 964.192 255.666 964.226 265.554C964.256 274.172 964.276 282.79 964.282 291.408C964.286 295.972 964.295 300.536 964.317 305.099C964.338 309.394 964.344 313.689 964.339 317.985C964.34 319.561 964.346 321.138 964.358 322.714C964.373 324.867 964.369 327.02 964.361 329.173C964.364 330.377 964.366 331.582 964.369 332.824C963.963 336.32 963.099 338.202 961 341C957.642 342.679 954.291 342.395 950.75 341.312C948.299 339.474 947.927 337.93 947 335C946.635 332.234 946.495 329.473 946.375 326.688C946.336 325.947 946.298 325.206 946.258 324.443C946.164 322.629 946.081 320.815 946 319C945.466 319.652 944.933 320.305 944.383 320.977C935.798 331.046 925.171 337.697 912 340C892.496 341.311 875.683 339.114 860.125 326.25C847.911 314.663 842.697 298.83 841.871 282.441C841.47 263.99 846.4 247.371 859.094 233.754C870.583 222.744 885.261 218.404 900.875 218.562C901.926 218.57 902.978 218.578 904.061 218.585C918.733 218.896 931.268 223.778 942 234C943.32 235.98 944.64 237.96 946 240C946.33 217.56 946.66 195.12 947 172ZM873 245C872.31 245.637 871.621 246.274 870.91 246.93C862.493 255.488 858.948 266.7 858.75 278.562C858.907 291.279 862.525 303.227 871.125 312.812C880.692 321.656 893.204 324.641 905.863 324.305C917.781 323.638 927.533 318.591 935.84 310.125C945.033 298.897 947.164 285.052 946 271C943.869 258.661 937.447 248.741 927.301 241.434C910.982 231.265 887.419 231.574 873 245Z" fill="black"/>
<path d="M179 223C179.966 223.413 180.931 223.825 181.926 224.25C195.295 230.759 202.681 241.559 208 255C210 264 210 264 210 287C176.67 287 143.34 287 109 287C112.283 300.134 115.799 309.34 127 317C140.042 323.671 154.188 325.153 168.375 321.375C176.483 318.722 183.935 315.507 189.75 309.125C192.293 306.374 192.769 306.043 196.688 305.313C200 306 200 306 202.438 307.563C204.702 311.095 204.759 312.862 204 317C197.888 326.919 186.574 332.98 176 337C175.157 337.321 174.314 337.642 173.445 337.973C156.157 343.36 136.011 341.065 120.084 332.964C104.895 324.707 97.1684 311.634 92.25 295.547C88.1759 278.911 91.1746 260.686 99.2422 245.746C108.065 231.964 120.784 223.183 136.641 219.395C150.23 217.12 166.267 217.502 179 223ZM118.25 247.875C112.361 254.918 109 262.735 109 272C137.05 272 165.1 272 194 272C192.818 260.178 189.904 251.443 181.188 243.309C162.465 228.247 134.347 230.519 118.25 247.875Z" fill="#FF7300"/>
<path d="M1097 230C1108.41 239.02 1114.22 252.841 1116 267C1116.14 270.272 1116.14 273.538 1116.12 276.813C1116.13 277.683 1116.13 278.554 1116.14 279.451C1116.14 280.278 1116.13 281.105 1116.13 281.957C1116.13 282.71 1116.13 283.462 1116.13 284.238C1116 286 1116 286 1115 287C1111.86 287.095 1108.75 287.126 1105.61 287.114C1104.14 287.114 1104.14 287.114 1102.63 287.114C1099.36 287.113 1096.08 287.106 1092.81 287.098C1090.55 287.096 1088.28 287.094 1086.02 287.093C1080.05 287.09 1074.08 287.08 1068.11 287.069C1062.03 287.059 1055.94 287.054 1049.85 287.049C1037.9 287.038 1025.95 287.021 1014 287C1014.77 289.397 1015.54 291.791 1016.32 294.184C1016.54 294.857 1016.75 295.53 1016.98 296.223C1020.85 308.043 1027.83 314.583 1038.75 320.141C1052.42 325.361 1067.5 324.06 1081 319C1086.91 316.174 1091.59 312.808 1096 308C1099.72 305.52 1101.6 305.537 1106 306C1109.01 308.007 1109.82 309.229 1110.62 312.75C1109.07 320.83 1102.77 325.404 1096.24 329.839C1084.42 337.449 1071.58 340.393 1057.69 340.313C1056.16 340.304 1056.16 340.304 1054.6 340.295C1037.44 340.018 1024.1 334.269 1012 322C1011.43 321.435 1010.85 320.871 1010.26 320.289C998.007 307.277 996.319 290.426 996.719 273.449C997.332 258.439 1003.49 244.783 1014 234C1036.67 214.398 1072.47 212.523 1097 230ZM1024.19 246.688C1017.94 254.426 1015.94 262.287 1014 272C1042.38 272 1070.76 272 1100 272C1098 259.984 1095.52 249.742 1085.62 242.188C1067.23 229.645 1040.11 229.866 1024.19 246.688Z" fill="black"/>
<path d="M722.742 227.352C727.418 230.765 731.773 234.16 735 239C735.33 232.73 735.66 226.46 736 220C741.28 220 746.56 220 752 220C752.069 235.186 752.123 250.372 752.155 265.557C752.171 272.609 752.192 279.659 752.226 286.71C752.259 293.512 752.277 300.314 752.285 307.115C752.29 309.713 752.301 312.311 752.317 314.909C752.339 318.541 752.342 322.173 752.341 325.806C752.351 326.885 752.362 327.965 752.373 329.077C752.369 330.067 752.365 331.057 752.361 332.077C752.364 332.936 752.366 333.795 752.369 334.681C751.913 337.547 750.983 338.905 749 341C745.309 342.204 743.704 342.344 740.188 340.625C738 339 738 339 737 338C736.843 336.514 736.749 335.021 736.684 333.527C736.642 332.628 736.6 331.729 736.557 330.803C736.517 329.857 736.478 328.912 736.438 327.938C736.394 326.988 736.351 326.039 736.307 325.061C736.2 322.707 736.098 320.354 736 318C735.478 318.641 734.956 319.281 734.418 319.941C725.356 330.59 714.691 337.002 701 340C681.782 341.511 664.46 338.972 649.25 326.25C636.443 314.175 631.418 298.534 629.75 281.438C629.244 264.245 635.401 247.502 647.035 234.875C666.592 216.212 699.959 212.539 722.742 227.352ZM658.25 247.625C649.777 258.121 645.776 270.591 647 284C648.861 296.543 653.586 308.222 664 316C677.003 323.835 689.612 326.05 704.602 323.352C715.534 320.046 724.844 312.341 730.473 302.398C733.358 296.426 735.209 290.586 736 284C736.126 282.979 736.126 282.979 736.254 281.938C736.96 269.92 732.532 257.214 725 248C717.027 239.131 705.928 234.818 694.231 233.746C680.949 233.206 667.505 237.885 658.25 247.625Z" fill="black"/>
<path d="M566.875 218.688C568.335 218.696 568.335 218.696 569.824 218.705C576.615 218.82 582.69 219.314 589 222C590.502 222.638 590.502 222.638 592.035 223.289C598.589 226.327 603.88 229.91 609 235C608.429 238.772 606.834 240.627 604.188 243.313C603.5 244.031 602.813 244.749 602.105 245.488C600 247 600 247 597.961 246.906C595.795 245.905 594.252 244.736 592.438 243.188C582.104 235.362 570.541 234.662 558 236C554.011 236.861 550.609 238.112 547 240C546.277 240.374 545.554 240.748 544.809 241.133C534.53 247.023 528.782 255.518 525.442 266.902C522.884 279.042 524.038 293.544 530.32 304.25C537.179 314.145 547.058 320.807 559 323C575.275 324.13 587.284 320.785 600.059 310.313C603.095 308.26 605.441 308.555 609 309C611.438 310.5 611.438 310.5 613 313C613.724 317.013 614.056 319.374 611.813 322.828C601.775 333.542 587.806 339.642 573.281 340.41C555.829 340.874 540.179 338.473 526.625 326.563C525.064 325.062 523.52 323.542 522 322C521.425 321.435 520.85 320.871 520.258 320.289C508.115 307.391 506.235 290.517 506.652 273.652C507.412 257.334 513.964 243.09 526 232C538.296 222.616 551.559 218.595 566.875 218.688Z" fill="#FF7300"/>
<path d="M75 223C76.65 224.65 78.3 226.3 80 228C76.535 234.435 76.535 234.435 73 241C67 239 67 239 64.9023 238.149C55.6991 234.526 45.7539 234.758 36.6367 238.551C28.1904 243.193 22.1161 249.859 19 259C16.8449 266.592 16.7182 273.954 16.7256 281.793C16.7265 284.093 16.7135 286.392 16.6966 288.692C16.6506 295.223 16.6257 301.754 16.6191 308.286C16.6141 312.297 16.5899 316.307 16.5538 320.318C16.544 321.842 16.5416 323.365 16.547 324.889C16.554 327.014 16.5368 329.138 16.5141 331.263C16.5099 333.074 16.5099 333.074 16.5055 334.922C15.9033 338.589 14.906 339.762 12 342C9.99997 342.531 9.99997 342.531 7.99997 342.5C7.33997 342.511 6.67997 342.521 5.99997 342.531C2.83926 341.692 1.92415 340.702 -3.20375e-05 338C-0.60242 334.244 -0.504268 330.511 -0.454134 326.714C-0.454718 325.563 -0.455302 324.411 -0.455904 323.225C-0.453115 319.415 -0.421984 315.606 -0.390657 311.797C-0.383197 309.157 -0.377503 306.517 -0.373506 303.877C-0.361078 297.637 -0.32826 291.397 -0.28811 285.157C-0.243388 278.052 -0.221402 270.947 -0.201326 263.842C-0.159525 249.228 -0.0883693 234.614 -3.20375e-05 220C4.94997 220 9.89997 220 15 220C16.1051 223.316 16.321 226.204 16.5625 229.688C16.6882 231.457 16.6882 231.457 16.8164 233.262C16.877 234.166 16.9375 235.069 17 236C17.4756 235.238 17.4756 235.238 17.9609 234.461C24.5796 224.698 34.4336 220.539 45.6875 218.25C55.5202 217.33 66.2383 218.156 75 223Z" fill="#FF7300"/>
<path d="M398 172C403.61 172 409.22 172 415 172C415.069 193.297 415.123 214.593 415.155 235.89C415.171 245.778 415.192 255.666 415.226 265.554C415.256 274.172 415.276 282.79 415.282 291.408C415.286 295.972 415.295 300.536 415.317 305.099C415.338 309.394 415.344 313.689 415.339 317.985C415.34 319.561 415.346 321.138 415.358 322.714C415.373 324.867 415.369 327.02 415.361 329.173C415.364 330.377 415.366 331.582 415.369 332.824C414.963 336.32 414.099 338.202 412 341C408.861 342.569 406.461 342.352 403 342C399.711 339.442 398.182 337.947 397.385 333.808C397.389 332.596 397.394 331.384 397.399 330.135C397.394 329.457 397.39 328.779 397.386 328.08C397.378 325.815 397.405 323.551 397.432 321.286C397.434 319.66 397.433 318.033 397.43 316.407C397.429 311.996 397.458 307.586 397.493 303.175C397.524 298.564 397.527 293.953 397.533 289.341C397.549 280.611 397.59 271.882 397.64 263.152C397.696 253.212 397.723 243.273 397.748 233.333C397.801 212.889 397.89 192.444 398 172Z" fill="#FF7300"/>
<path d="M1007 111C1009.62 111.375 1009.62 111.375 1012 112C1012.39 113.196 1012.78 114.393 1013.19 115.625C1013.79 117.417 1014.39 119.209 1015 121C1015.36 122.098 1015.73 123.197 1016.1 124.328C1018.44 131.191 1021.03 137.293 1024.96 143.402C1027.06 148.655 1024.86 153.867 1022.75 158.824C1022.45 159.51 1022.15 160.196 1021.84 160.902C1021.53 161.625 1021.22 162.347 1020.9 163.092C1019.92 165.377 1018.93 167.657 1017.94 169.938C1017.27 171.495 1016.6 173.053 1015.93 174.611C1014.29 178.411 1012.65 182.207 1011 186C1011.88 185.677 1012.75 185.355 1013.66 185.022C1016.93 183.817 1020.21 182.613 1023.49 181.41C1024.9 180.891 1026.32 180.371 1027.73 179.851C1029.77 179.1 1031.81 178.351 1033.85 177.602C1035.08 177.151 1036.3 176.701 1037.56 176.237C1038.7 175.829 1039.83 175.421 1041 175C1042.07 174.614 1043.13 174.227 1044.23 173.829C1049.97 172.11 1054.61 174.044 1059.64 176.73C1060.3 177.087 1060.95 177.444 1061.62 177.812C1082.97 188.884 1106.05 190.57 1129.06 183.625C1151.59 176.358 1169.86 161.166 1181 140.371C1185.58 131.311 1188.4 121.783 1191 112C1193.31 111.375 1193.31 111.375 1196 111C1196.99 111.66 1197.98 112.32 1199 113C1197.36 137.263 1183.32 158.525 1165.73 174.522C1144.75 192.463 1118 198.351 1091 197C1077.46 195.798 1063.25 191.348 1051.89 183.785C1047 181.755 1040.39 185.616 1035.72 187.379C1033.89 188.059 1032.06 188.74 1030.23 189.42C1027.36 190.492 1024.49 191.567 1021.62 192.646C1018.84 193.689 1016.06 194.722 1013.28 195.754C1012 196.241 1012 196.241 1010.69 196.739C1003.09 199.547 1003.09 199.547 999 199C998 198 998 198 997.676 195.021C997.758 190.014 999.992 186.061 1002.18 181.656C1003.04 179.835 1003.89 178.012 1004.74 176.188C1006.08 173.341 1007.43 170.507 1008.84 167.691C1014.91 156.613 1014.91 156.613 1015.06 144.556C1013.47 140.769 1011.23 137.446 1009 134C1006.33 127.082 1004.16 120.453 1005 113C1005.66 112.34 1006.32 111.68 1007 111Z" fill="black"/>
<path d="M1158.34 16.6211C1160.62 18.3532 1162.82 20.149 1165 22C1165.82 22.6909 1166.65 23.3819 1167.5 24.0937C1181.91 36.5698 1195.86 56.3325 1197.87 75.9375C1197.94 77.2907 1197.99 78.6452 1198 80C1195 82 1195 82 1193 82.0625C1188.81 79.8368 1187.52 72.687 1186.06 68.4067C1181.4 55.0202 1174.05 44.0492 1164 34C1163.3 33.3039 1162.61 32.6078 1161.89 31.8906C1144.37 15.3978 1120.64 7.93633 1096.85 8.64842C1084.69 9.32793 1072.91 12.6533 1062 18C1061.08 18.4408 1060.16 18.8817 1059.21 19.3359C1035.32 31.5166 1022.41 52.8999 1014.12 77.4375C1013.57 79.2009 1013.57 79.2009 1013 81C1010.69 81.6875 1010.69 81.6875 1008 82C1006.3 80.8164 1006.3 80.8164 1005 79C1004.51 63.0141 1016.41 45.0948 1026.56 33.625C1028.03 32.0729 1029.51 30.5306 1031 29C1031.66 28.2923 1032.31 27.5846 1032.99 26.8555C1064.89 -6.64488 1121.15 -9.1844 1158.34 16.6211Z" fill="black"/>
<path d="M792 220C797.61 220 803.22 220 809 220C809.116 235.168 809.205 250.337 809.259 265.506C809.285 272.549 809.32 279.592 809.377 286.635C809.432 293.43 809.461 300.225 809.474 307.02C809.484 309.615 809.502 312.209 809.529 314.803C809.565 318.433 809.57 322.062 809.568 325.692C809.586 326.768 809.603 327.844 809.622 328.953C809.572 336.216 809.572 336.216 806.687 340.172C803.16 342.572 801.184 342.685 797 342C794.635 340.133 793.34 338.679 792 336C791.907 334.454 791.878 332.904 791.88 331.356C791.878 330.377 791.877 329.398 791.875 328.39C791.879 327.312 791.883 326.235 791.886 325.125C791.886 323.993 791.886 322.861 791.886 321.695C791.887 317.94 791.894 314.185 791.902 310.43C791.904 307.832 791.906 305.234 791.907 302.636C791.91 296.488 791.918 290.34 791.928 284.192C791.939 277.193 791.945 270.194 791.95 263.195C791.96 248.797 791.978 234.398 792 220Z" fill="black"/>
<path d="M457 220C462.61 220 468.22 220 474 220C474.07 235.038 474.123 250.076 474.156 265.115C474.171 272.097 474.192 279.08 474.226 286.062C474.26 292.799 474.277 299.536 474.285 306.272C474.29 308.845 474.301 311.417 474.317 313.989C474.339 317.587 474.342 321.185 474.341 324.784C474.351 325.851 474.362 326.917 474.373 328.016C474.335 337.129 474.335 337.129 471 341C467.861 342.569 465.462 342.352 462 342C459.305 340.183 459.305 340.183 457 337C456.277 333.231 456.369 329.519 456.432 325.692C456.432 324.55 456.431 323.408 456.43 322.232C456.434 318.46 456.473 314.69 456.512 310.918C456.521 308.302 456.528 305.686 456.533 303.07C456.549 296.89 456.59 290.71 456.64 284.53C456.696 277.493 456.723 270.455 456.748 263.418C456.801 248.945 456.89 234.472 457 220Z" fill="#FF7300"/>
<path d="M1098 50C1100.88 49.875 1100.88 49.875 1104 50C1106.55 52.5535 1106.24 54.2029 1106.26 57.6843C1106.25 58.875 1106.25 58.875 1106.24 60.0898C1106.24 60.9257 1106.25 61.7616 1106.25 62.6228C1106.25 65.3945 1106.24 68.1659 1106.23 70.9375C1106.23 72.858 1106.23 74.7785 1106.23 76.699C1106.23 80.7274 1106.22 84.7558 1106.21 88.7842C1106.19 93.9563 1106.19 99.1282 1106.19 104.3C1106.19 108.267 1106.18 112.234 1106.17 116.2C1106.17 118.108 1106.17 120.015 1106.17 121.923C1106.16 124.585 1106.16 127.248 1106.15 129.91C1106.15 130.704 1106.15 131.498 1106.15 132.316C1106.11 137.771 1106.11 137.771 1105 140C1102.03 141.09 1101.12 141.039 1098 140C1096.41 136.824 1096.86 133.398 1096.87 129.91C1096.87 129.074 1096.87 128.238 1096.87 127.377C1096.86 124.606 1096.86 121.834 1096.87 119.062C1096.87 117.142 1096.87 115.222 1096.86 113.301C1096.86 109.273 1096.86 105.244 1096.87 101.216C1096.88 96.0437 1096.87 90.8717 1096.87 85.6997C1096.86 81.7329 1096.86 77.7662 1096.87 73.7995C1096.87 71.8921 1096.87 69.9846 1096.86 68.0772C1096.86 65.4147 1096.87 62.7523 1096.87 60.0898C1096.87 59.296 1096.87 58.5022 1096.86 57.6843C1096.89 52.2285 1096.89 52.2285 1098 50Z" fill="#FF7300"/>
<path d="M1061 64C1063.5 63.6875 1063.5 63.6875 1066 64C1068.64 66.6402 1068.25 67.8362 1068.26 71.5195C1068.27 72.6741 1068.27 73.8287 1068.28 75.0183C1068.27 76.2704 1068.27 77.5225 1068.27 78.8125C1068.27 80.0923 1068.27 81.3721 1068.27 82.6907C1068.27 85.4009 1068.27 88.1111 1068.26 90.8213C1068.25 94.2985 1068.26 97.7754 1068.27 101.253C1068.28 104.564 1068.27 107.876 1068.27 111.188C1068.27 112.44 1068.27 113.692 1068.28 114.982C1068.27 116.136 1068.27 117.291 1068.26 118.48C1068.26 120.01 1068.26 120.01 1068.25 121.571C1068 124 1068 124 1066 126C1063.5 126.312 1063.5 126.312 1061 126C1058.76 122.633 1058.75 121.506 1058.74 117.566C1058.73 116.455 1058.73 115.344 1058.72 114.199C1058.73 112.999 1058.73 111.799 1058.73 110.562C1058.73 109.331 1058.73 108.099 1058.73 106.83C1058.73 103.557 1058.73 100.283 1058.75 97.0094C1058.75 95.002 1058.75 92.9947 1058.74 90.9873C1058.73 87.1373 1058.73 83.2875 1058.73 79.4375C1058.73 78.2375 1058.73 77.0374 1058.72 75.801C1058.73 74.6898 1058.73 73.5785 1058.74 72.4336C1058.74 71.4545 1058.74 70.4753 1058.75 69.4666C1059 67 1059 67 1061 64Z" fill="#FF7300"/>
<path d="M1080 67C1082.5 66.6875 1082.5 66.6875 1085 67C1087.54 69.5427 1087.25 70.4444 1087.26 73.9688C1087.27 75.0032 1087.27 76.0377 1087.28 77.1035C1087.27 78.2244 1087.27 79.3452 1087.27 80.5C1087.27 81.6466 1087.27 82.7932 1087.27 83.9746C1087.27 86.4023 1087.27 88.8301 1087.26 91.2578C1087.25 94.9845 1087.26 98.7108 1087.27 102.438C1087.27 104.792 1087.27 107.146 1087.27 109.5C1087.27 110.621 1087.27 111.742 1087.28 112.896C1087.27 113.931 1087.27 114.965 1087.26 116.031C1087.26 117.401 1087.26 117.401 1087.25 118.799C1087 121 1087 121 1085 123C1082.5 123.25 1082.5 123.25 1080 123C1077.48 120.477 1077.75 119.63 1077.74 116.139C1077.73 115.128 1077.73 114.116 1077.72 113.075C1077.73 111.979 1077.73 110.883 1077.73 109.754C1077.73 108.632 1077.73 107.51 1077.73 106.354C1077.73 103.977 1077.73 101.601 1077.74 99.2244C1077.75 95.581 1077.74 91.9382 1077.73 88.2949C1077.73 85.9896 1077.73 83.6842 1077.73 81.3789C1077.73 80.2851 1077.73 79.1913 1077.72 78.0643C1077.73 77.05 1077.73 76.0356 1077.74 74.9905C1077.74 74.0972 1077.74 73.2038 1077.75 72.2835C1078 70 1078 70 1080 67Z" fill="#FF7300"/>
<path d="M1120.5 66.6875C1121.74 66.8422 1121.74 66.8422 1123 67C1125.16 70.2431 1125.25 71.1386 1125.26 74.8828C1125.27 75.8739 1125.27 76.8651 1125.28 77.8862C1125.27 78.955 1125.27 80.0238 1125.27 81.125C1125.27 82.2234 1125.27 83.3219 1125.27 84.4536C1125.27 86.777 1125.27 89.1004 1125.26 91.4238C1125.25 94.9859 1125.26 98.5474 1125.27 102.109C1125.27 104.365 1125.27 106.62 1125.27 108.875C1125.27 109.944 1125.27 111.013 1125.28 112.114C1125.27 113.105 1125.27 114.096 1125.26 115.117C1125.26 116.426 1125.26 116.426 1125.25 117.761C1125 120 1125 120 1123 123C1120.5 123.312 1120.5 123.312 1118 123C1115.46 120.457 1115.75 119.556 1115.74 116.031C1115.73 114.997 1115.73 113.962 1115.72 112.896C1115.73 111.776 1115.73 110.655 1115.73 109.5C1115.73 108.353 1115.73 107.207 1115.73 106.025C1115.73 103.598 1115.73 101.17 1115.74 98.7422C1115.75 95.0155 1115.74 91.2892 1115.73 87.5625C1115.73 85.2083 1115.73 82.8542 1115.73 80.5C1115.73 79.3792 1115.73 78.2583 1115.72 77.1035C1115.73 76.069 1115.73 75.0346 1115.74 73.9688C1115.74 73.0554 1115.74 72.1421 1115.75 71.2012C1116.13 67.8749 1117.24 67.0949 1120.5 66.6875Z" fill="#FF7300"/>
<path d="M1139.56 63.8125C1142 64 1142 64 1143 65C1143.1 66.8664 1143.13 68.7365 1143.13 70.6055C1143.13 71.8034 1143.14 73.0014 1143.14 74.2356C1143.14 75.5397 1143.13 76.8439 1143.13 78.1875C1143.13 79.5289 1143.13 80.8703 1143.14 82.2117C1143.14 85.0262 1143.14 87.8407 1143.13 90.6553C1143.12 94.2704 1143.13 97.8855 1143.13 101.501C1143.14 104.271 1143.14 107.042 1143.13 109.813C1143.13 111.797 1143.14 113.781 1143.14 115.764C1143.14 116.962 1143.13 118.16 1143.13 119.395C1143.13 120.986 1143.13 120.986 1143.13 122.609C1143 125 1143 125 1142 126C1140 126.041 1138 126.043 1136 126C1134.69 123.376 1134.87 121.419 1134.85 118.48C1134.85 117.326 1134.84 116.171 1134.84 114.982C1134.83 113.73 1134.83 112.478 1134.83 111.188C1134.83 109.268 1134.83 109.268 1134.82 107.309C1134.82 104.599 1134.81 101.889 1134.81 99.1787C1134.81 95.7015 1134.8 92.2246 1134.78 88.7474C1134.77 85.4358 1134.77 82.1242 1134.77 78.8125C1134.76 77.5604 1134.76 76.3083 1134.75 75.0183C1134.75 73.8637 1134.75 72.7091 1134.76 71.5195C1134.76 70.4996 1134.75 69.4798 1134.75 68.429C1135.11 64.9278 1136.07 64.0682 1139.56 63.8125Z" fill="#FF7300"/>
<path d="M806 173C809.153 174.774 810.509 176.197 812.375 179.25C813.243 183.071 813.146 186.244 812 190C809.942 193.022 808.422 194.578 804.879 195.629C801.012 196.248 798.39 196.123 794.625 194.937C791.319 192.497 790.237 190.93 789 187C788.627 181.965 789.265 178.924 792.437 174.937C796.578 172.057 801.174 172.13 806 173Z" fill="black"/>
<path d="M470 173C473.635 174.624 474.774 175.661 477 179C477.665 183.069 477.923 187.225 475.984 190.953C473.854 193.597 472.234 194.922 469 196C463.989 196.371 461.009 196.118 457 193C454.867 191.088 454.104 189.757 453.715 186.918C453.534 182.167 453.811 178.759 457 175C461.225 172.441 465.184 172.432 470 173Z" fill="#FF7300"/>
<path d="M1048 77.9998C1049.91 79.9127 1049.16 83.422 1049.17 86.0271C1049.17 86.7312 1049.17 87.4353 1049.18 88.1608C1049.18 89.6529 1049.19 91.1451 1049.19 92.6372C1049.19 94.9243 1049.21 97.2108 1049.22 99.4978C1049.23 100.945 1049.23 102.392 1049.23 103.84C1049.24 104.526 1049.24 105.213 1049.25 105.92C1049.23 110.771 1049.23 110.771 1047 113C1045.02 112.67 1043.04 112.34 1041 112C1041 100.78 1041 89.5598 1041 77.9998C1043.68 76.6579 1045.15 77.2697 1048 77.9998Z" fill="#FF7300"/>
<path d="M1156 77C1160.56 77.5556 1160.56 77.5556 1162 79C1162.09 81.4483 1162.12 83.8682 1162.1 86.3164C1162.1 87.0475 1162.09 87.7785 1162.09 88.5317C1162.09 90.8754 1162.08 93.2189 1162.06 95.5625C1162.06 97.1478 1162.05 98.7331 1162.05 100.318C1162.04 104.212 1162.02 108.106 1162 112C1159.12 112.625 1159.12 112.625 1156 113C1153.1 110.096 1153.74 107.932 1153.73 103.875C1153.73 103.172 1153.73 102.47 1153.73 101.746C1153.73 100.259 1153.73 98.7733 1153.74 97.2871C1153.75 95.0088 1153.74 92.7314 1153.73 90.4531C1153.73 89.0104 1153.73 87.5677 1153.73 86.125C1153.74 84.8076 1153.74 83.4902 1153.74 82.1328C1154 79 1154 79 1156 77Z" fill="#FF7300"/>
<path d="M1178.63 85.2498C1179.41 85.4973 1180.19 85.7448 1181 85.9998C1182.51 89.0184 1182.18 92.1297 1182.19 95.4373C1182.2 96.1185 1182.21 96.7998 1182.22 97.5017C1182.24 101.228 1182.12 102.82 1180 106C1177.5 106.312 1177.5 106.312 1175 106C1172.38 103.38 1172.71 101.451 1172.68 97.8787C1172.68 97.0936 1172.68 96.3086 1172.69 95.4998C1172.67 94.7147 1172.66 93.9297 1172.64 93.1209C1172.64 90.8435 1172.64 90.8435 1173 86.9998C1176 84.9998 1176 84.9998 1178.63 85.2498Z" fill="#FF7300"/>
<path d="M1024 85C1028.56 85.5556 1028.56 85.5556 1030 87C1030.13 89.8242 1030.19 92.6129 1030.19 95.4375C1030.2 96.2271 1030.21 97.0166 1030.22 97.8301C1030.23 99.8881 1030.12 101.946 1030 104C1028 106 1028 106 1025.44 106.188C1023 106 1023 106 1022 105C1021.87 102.01 1021.81 99.0531 1021.81 96.0625C1021.8 95.2253 1021.79 94.388 1021.78 93.5254C1021.77 92.7242 1021.77 91.9231 1021.77 91.0977C1021.77 90.3604 1021.76 89.6231 1021.76 88.8635C1022 87 1022 87 1024 85Z" fill="#FF7300"/>
<path d="M1197.75 91.875C1198.86 92.4318 1198.86 92.4318 1200 93C1200 95.31 1200 97.62 1200 100C1196.62 100.625 1196.62 100.625 1193 101C1191 99 1191 99 1190.88 95.875C1190.92 94.9262 1190.96 93.9775 1191 93C1193.73 91.1806 1194.54 90.8523 1197.75 91.875Z" fill="#FF7300"/>
<path d="M1007.5 91.875C1011 92 1011 92 1012 93C1012.04 95.333 1012.04 97.6671 1012 100C1008.62 100.625 1008.62 100.625 1005 101C1003 99 1003 99 1002.81 95.9375C1003.08 91.6926 1003.14 92.0307 1007.5 91.875Z" fill="#FF7300"/>
</g>
<defs>
<clipPath id="clip0_1284_154">
<rect width="1200" height="401" fill="white"/>
</clipPath>
</defs>
</svg>
