<svg width="1127" height="459" viewBox="0 0 1127 459" fill="none" xmlns="http://www.w3.org/2000/svg">
<path d="M65.6624 341.341C37.3924 341.341 17.0894 326.178 17.0894 284.544V221.322H31.9954L32.7664 285.315C33.2804 317.697 47.6724 327.206 65.6624 327.206C83.6524 327.206 98.3014 317.697 98.8154 285.315L99.5864 221.322H114.492V284.544C114.492 326.178 94.1894 341.341 65.6624 341.341ZM210.066 218.238C234.995 218.238 252.471 228.775 252.471 270.923V338H237.822L237.308 272.722C236.794 239.055 224.458 232.373 206.468 232.373C187.964 232.373 169.717 243.167 169.46 272.979L168.689 338H154.04V221.322H167.661V245.223C174.343 227.747 189.506 218.238 210.066 218.238ZM305.59 195.622C299.679 195.622 294.282 190.739 294.282 184.828C294.282 178.917 299.679 174.034 305.59 174.034C311.244 174.034 316.384 178.917 316.384 184.828C316.384 190.739 311.244 195.622 305.59 195.622ZM297.366 338V221.322H312.786L312.272 338H297.366ZM419.196 318.468L424.079 330.804C417.397 336.458 407.117 341.341 394.01 341.341C372.422 341.341 362.656 329.005 362.656 299.45V234.429H346.208V221.579H362.656V180.716H377.305V221.322L416.369 221.065V233.915L377.305 234.172V298.936C377.305 318.982 382.959 327.977 396.837 327.977C405.575 327.977 413.028 324.636 419.196 318.468ZM520.665 221.065H538.141L461.041 387.087H444.85L471.064 331.832L425.061 221.322H443.051L479.545 314.356L520.665 221.065Z" fill="#FA4276"/>
<path d="M873.279 172.76C878.889 172.76 884.499 172.76 890.279 172.76C890.348 194.056 890.402 215.353 890.434 236.65C890.45 246.538 890.471 256.426 890.505 266.314C890.535 274.932 890.554 283.55 890.561 292.168C890.565 296.732 890.574 301.295 890.596 305.859C890.616 310.154 890.623 314.449 890.618 318.744C890.619 320.321 890.625 321.898 890.637 323.474C890.651 325.627 890.648 327.779 890.64 329.932C890.642 331.137 890.645 332.342 890.648 333.583C890.242 337.08 889.378 338.962 887.279 341.76C883.921 343.439 880.57 343.154 877.029 342.072C874.578 340.234 874.206 338.69 873.279 335.76C872.914 332.994 872.773 330.233 872.654 327.447C872.615 326.707 872.577 325.966 872.537 325.203C872.443 323.389 872.36 321.574 872.279 319.76C871.745 320.412 871.212 321.064 870.662 321.736C862.077 331.806 851.45 338.457 838.279 340.76C818.775 342.071 801.962 339.873 786.404 327.01C774.189 315.423 768.976 299.59 768.15 283.201C767.748 264.75 772.679 248.131 785.373 234.514C796.861 223.504 811.54 219.164 827.154 219.322C828.205 219.33 829.257 219.337 830.34 219.345C845.012 219.656 857.546 224.538 868.279 234.76C869.599 236.74 870.919 238.72 872.279 240.76C872.609 218.32 872.939 195.88 873.279 172.76ZM799.279 245.76C798.589 246.397 797.9 247.033 797.189 247.689C788.772 256.247 785.227 267.46 785.029 279.322C785.186 292.039 788.804 303.986 797.404 313.572C806.971 322.416 819.483 325.4 832.142 325.064C844.06 324.398 853.812 319.35 862.119 310.885C871.311 299.657 873.443 285.812 872.279 271.76C870.148 259.421 863.725 249.5 853.58 242.193C837.26 232.025 813.698 232.334 799.279 245.76Z" fill="black"/>
<path d="M1023.28 230.76C1034.69 239.78 1040.5 253.601 1042.28 267.76C1042.41 271.032 1042.42 274.298 1042.4 277.572C1042.41 278.443 1042.41 279.314 1042.42 280.211C1042.41 281.038 1042.41 281.865 1042.41 282.717C1042.41 283.469 1042.41 284.222 1042.41 284.997C1042.28 286.76 1042.28 286.76 1041.28 287.76C1038.14 287.855 1035.03 287.885 1031.89 287.873C1030.42 287.874 1030.42 287.874 1028.91 287.874C1025.63 287.873 1022.36 287.865 1019.09 287.857C1016.82 287.856 1014.56 287.854 1012.3 287.853C1006.33 287.849 1000.36 287.84 994.391 287.829C988.305 287.818 982.219 287.814 976.133 287.809C964.181 287.798 952.23 287.781 940.279 287.76C941.047 290.157 941.823 292.551 942.603 294.943C942.818 295.616 943.033 296.289 943.255 296.983C947.129 308.802 954.109 315.343 965.029 320.9C978.698 326.121 993.781 324.82 1007.28 319.76C1013.19 316.934 1017.87 313.568 1022.28 308.76C1026 306.279 1027.88 306.296 1032.28 306.76C1035.29 308.767 1036.1 309.989 1036.9 313.51C1035.35 321.59 1029.05 326.164 1022.52 330.599C1010.7 338.209 997.855 341.153 983.967 341.072C982.44 341.064 982.44 341.064 980.883 341.055C963.721 340.778 950.374 335.028 938.279 322.76C937.704 322.195 937.129 321.631 936.537 321.049C924.286 308.037 922.598 291.186 922.998 274.209C923.611 259.198 929.769 245.542 940.279 234.76C962.947 215.158 998.752 213.283 1023.28 230.76ZM950.467 247.447C944.217 255.185 942.222 263.046 940.279 272.76C968.659 272.76 997.039 272.76 1026.28 272.76C1024.28 260.744 1021.8 250.501 1011.9 242.947C993.508 230.405 966.392 230.626 950.467 247.447Z" fill="black"/>
<path d="M649.021 228.111C653.697 231.525 658.052 234.92 661.279 239.76C661.609 233.49 661.939 227.22 662.279 220.76C667.559 220.76 672.839 220.76 678.279 220.76C678.348 235.946 678.402 251.131 678.434 266.317C678.45 273.368 678.471 280.419 678.505 287.47C678.538 294.272 678.556 301.073 678.563 307.875C678.569 310.473 678.58 313.071 678.596 315.669C678.618 319.301 678.621 322.933 678.619 326.565C678.63 327.645 678.641 328.725 678.652 329.837C678.648 330.827 678.644 331.817 678.64 332.837C678.642 333.696 678.645 334.555 678.648 335.44C678.192 338.307 677.262 339.665 675.279 341.76C671.588 342.963 669.983 343.104 666.466 341.385C664.279 339.76 664.279 339.76 663.279 338.76C663.122 337.273 663.028 335.78 662.962 334.287C662.921 333.388 662.879 332.489 662.835 331.563C662.796 330.617 662.757 329.671 662.716 328.697C662.673 327.748 662.63 326.798 662.585 325.82C662.479 323.467 662.377 321.113 662.279 318.76C661.757 319.4 661.235 320.041 660.697 320.701C651.635 331.35 640.97 337.761 627.279 340.76C608.061 342.271 590.739 339.732 575.529 327.01C562.722 314.935 557.697 299.294 556.029 282.197C555.523 265.005 561.68 248.262 573.314 235.635C592.871 216.972 626.238 213.299 649.021 228.111ZM584.529 248.385C576.056 258.881 572.055 271.351 573.279 284.76C575.14 297.303 579.865 308.982 590.279 316.76C603.282 324.594 615.891 326.81 630.88 324.111C641.813 320.806 651.123 313.101 656.752 303.158C659.637 297.185 661.488 291.345 662.279 284.76C662.405 283.739 662.405 283.739 662.533 282.697C663.238 270.679 658.81 257.974 651.279 248.76C643.306 239.891 632.207 235.578 620.509 234.506C607.228 233.966 593.784 238.645 584.529 248.385Z" fill="black"/>
<path d="M933.279 111.76C935.904 112.135 935.904 112.135 938.279 112.76C938.671 113.956 939.063 115.152 939.467 116.385C940.07 118.177 940.674 119.968 941.279 121.76C941.643 122.858 942.006 123.956 942.381 125.088C944.724 131.95 947.309 138.053 951.24 144.162C953.341 149.414 951.136 154.627 949.031 159.584C948.73 160.27 948.429 160.956 948.119 161.662C947.81 162.385 947.5 163.107 947.182 163.852C946.201 166.137 945.209 168.417 944.217 170.697C943.546 172.255 942.876 173.813 942.207 175.371C940.573 179.171 938.929 182.967 937.279 186.76C938.156 186.437 939.034 186.114 939.938 185.782C943.214 184.577 946.49 183.373 949.767 182.17C951.181 181.65 952.595 181.131 954.009 180.61C956.049 179.86 958.09 179.11 960.131 178.361C961.356 177.911 962.581 177.461 963.844 176.997C964.978 176.588 966.111 176.18 967.279 175.76C968.346 175.373 969.414 174.987 970.513 174.589C976.247 172.87 980.892 174.804 985.921 177.49C986.576 177.847 987.23 178.204 987.904 178.572C1009.25 189.644 1032.33 191.33 1055.34 184.385C1077.87 177.118 1096.14 161.926 1107.28 141.131C1111.86 132.07 1114.68 122.543 1117.28 112.76C1119.59 112.135 1119.59 112.135 1122.28 111.76C1123.27 112.42 1124.26 113.08 1125.28 113.76C1123.63 138.023 1109.6 159.285 1092.01 175.282C1071.03 193.222 1044.28 199.11 1017.28 197.76C1003.74 196.557 989.529 192.108 978.174 184.545C973.276 182.515 966.667 186.376 961.998 188.139C960.168 188.819 958.339 189.5 956.51 190.18C953.638 191.252 950.767 192.327 947.899 193.406C945.122 194.449 942.341 195.482 939.56 196.514C938.277 197.001 938.277 197.001 936.968 197.498C929.365 200.307 929.365 200.307 925.279 199.76C924.279 198.76 924.279 198.76 923.955 195.781C924.037 190.774 926.271 186.821 928.463 182.416C929.318 180.594 930.17 178.771 931.019 176.947C932.359 174.101 933.713 171.267 935.117 168.451C941.188 157.373 941.188 157.373 941.338 145.316C939.744 141.529 937.506 138.206 935.279 134.76C932.605 127.842 930.435 121.213 931.279 113.76C931.939 113.1 932.599 112.44 933.279 111.76Z" fill="black"/>
<path d="M1084.61 17.3808C1086.89 19.113 1089.09 20.9088 1091.28 22.7597C1092.1 23.4507 1092.93 24.1416 1093.78 24.8535C1108.19 37.3295 1122.14 57.0922 1124.15 76.6973C1124.22 78.0504 1124.27 79.405 1124.28 80.7598C1121.28 82.7598 1121.28 82.7598 1119.28 82.8223C1115.09 80.5966 1113.8 73.4468 1112.34 69.1665C1107.67 55.7799 1100.33 44.809 1090.28 34.7598C1089.58 34.0637 1088.89 33.3676 1088.17 32.6504C1070.65 16.1576 1046.92 8.6961 1023.13 9.40819C1010.97 10.0877 999.191 13.4131 988.279 18.7597C987.358 19.2006 986.438 19.6415 985.49 20.0957C961.599 32.2763 948.686 53.6597 940.404 78.1973C939.847 79.9607 939.847 79.9607 939.279 81.7598C936.966 82.4473 936.966 82.4473 934.279 82.7598C932.583 81.5762 932.583 81.5762 931.279 79.7598C930.79 63.7739 942.685 45.8546 952.841 34.3848C954.309 32.8327 955.788 31.2904 957.279 29.7597C957.936 29.0521 958.594 28.3444 959.271 27.6152C991.17 -5.88511 1047.43 -8.42464 1084.61 17.3808Z" fill="black"/>
<path d="M718.279 220.76C723.889 220.76 729.499 220.76 735.279 220.76C735.394 235.928 735.484 251.097 735.538 266.265C735.564 273.309 735.599 280.352 735.656 287.395C735.711 294.19 735.74 300.985 735.753 307.78C735.762 310.374 735.78 312.969 735.807 315.563C735.844 319.193 735.849 322.822 735.846 326.452C735.864 327.528 735.882 328.604 735.901 329.713C735.85 336.976 735.85 336.976 732.966 340.931C729.439 343.331 727.462 343.444 723.279 342.76C720.914 340.893 719.618 339.439 718.279 336.76C718.186 335.214 718.157 333.664 718.158 332.115C718.157 331.137 718.156 330.158 718.154 329.149C718.158 328.072 718.161 326.994 718.165 325.884C718.165 324.753 718.165 323.621 718.165 322.455C718.165 318.7 718.173 314.945 718.181 311.189C718.183 308.592 718.184 305.994 718.185 303.396C718.189 297.248 718.197 291.099 718.207 284.951C718.218 277.953 718.223 270.954 718.228 263.955C718.239 249.557 718.257 235.158 718.279 220.76Z" fill="black"/>
<path d="M1024.28 50.7598C1027.15 50.6348 1027.15 50.6348 1030.28 50.7598C1032.83 53.3133 1032.52 54.9626 1032.54 58.4441C1032.53 59.6348 1032.53 59.6348 1032.52 60.8496C1032.52 61.6855 1032.53 62.5214 1032.53 63.3826C1032.53 66.1542 1032.52 68.9256 1032.51 71.6973C1032.51 73.6178 1032.51 75.5382 1032.51 77.4587C1032.51 81.4872 1032.5 85.5155 1032.48 89.5439C1032.47 94.716 1032.46 99.888 1032.46 105.06C1032.46 109.027 1032.46 112.994 1032.45 116.96C1032.45 118.868 1032.45 120.775 1032.45 122.683C1032.44 125.345 1032.43 128.007 1032.42 130.67C1032.42 131.464 1032.42 132.258 1032.43 133.075C1032.39 138.531 1032.39 138.531 1031.28 140.76C1028.31 141.85 1027.39 141.798 1024.28 140.76C1022.69 137.583 1023.14 134.158 1023.15 130.67C1023.15 129.834 1023.15 128.998 1023.14 128.137C1023.14 125.365 1023.14 122.594 1023.15 119.822C1023.15 117.902 1023.14 115.981 1023.14 114.061C1023.14 110.032 1023.14 106.004 1023.15 101.976C1023.15 96.8035 1023.15 91.6315 1023.14 86.4594C1023.14 82.4927 1023.14 78.526 1023.15 74.5593C1023.15 72.6518 1023.14 70.7444 1023.14 68.8369C1023.14 66.1745 1023.14 63.5121 1023.15 60.8496C1023.15 60.0558 1023.15 59.2619 1023.14 58.4441C1023.16 52.9883 1023.16 52.9883 1024.28 50.7598Z" fill="#FA4276"/>
<path d="M987.279 64.7598C989.779 64.4473 989.779 64.4473 992.279 64.7598C994.919 67.3999 994.532 68.596 994.538 72.2793C994.544 73.4339 994.55 74.5885 994.557 75.7781C994.553 77.0302 994.549 78.2822 994.544 79.5723C994.546 80.8521 994.548 82.1319 994.55 83.4504C994.553 86.1607 994.549 88.8708 994.54 91.5811C994.528 95.0583 994.535 98.5352 994.547 102.012C994.556 105.324 994.549 108.636 994.544 111.947C994.549 113.199 994.553 114.451 994.557 115.741C994.55 116.896 994.544 118.051 994.538 119.24C994.535 120.77 994.535 120.77 994.533 122.331C994.279 124.76 994.279 124.76 992.279 126.76C989.779 127.072 989.779 127.072 987.279 126.76C985.034 123.392 985.026 122.265 985.02 118.326C985.014 117.215 985.007 116.104 985.001 114.959C985.005 113.759 985.009 112.559 985.013 111.322C985.011 110.091 985.009 108.859 985.007 107.59C985.006 104.316 985.014 101.043 985.025 97.7692C985.029 95.7617 985.025 93.7545 985.018 91.7471C985.006 87.8971 985.007 84.0473 985.013 80.1973C985.009 78.9972 985.005 77.7972 985.001 76.5608C985.007 75.4495 985.014 74.3383 985.02 73.1934C985.022 72.2142 985.023 71.2351 985.025 70.2263C985.279 67.7598 985.279 67.7598 987.279 64.7598Z" fill="#FA4276"/>
<path d="M1006.28 67.7598C1008.78 67.4473 1008.78 67.4473 1011.28 67.7598C1013.82 70.3025 1013.53 71.2042 1013.54 74.7285C1013.54 75.763 1013.55 76.7975 1013.56 77.8633C1013.55 78.9841 1013.55 80.105 1013.54 81.2598C1013.55 82.4064 1013.55 83.553 1013.55 84.7344C1013.55 87.1621 1013.55 89.5899 1013.54 92.0176C1013.53 95.7443 1013.54 99.4706 1013.55 103.197C1013.55 105.551 1013.55 107.906 1013.54 110.26C1013.55 111.381 1013.55 112.501 1013.56 113.656C1013.55 114.691 1013.54 115.725 1013.54 116.791C1013.54 118.161 1013.54 118.161 1013.53 119.559C1013.28 121.76 1013.28 121.76 1011.28 123.76C1008.78 124.01 1008.78 124.01 1006.28 123.76C1003.76 121.236 1004.03 120.39 1004.02 116.899C1004.01 115.887 1004.01 114.876 1004 113.834C1004.01 112.739 1004.01 111.643 1004.01 110.514C1004.01 109.392 1004.01 108.27 1004.01 107.114C1004.01 104.737 1004.01 102.361 1004.02 99.9841C1004.03 96.3408 1004.02 92.698 1004.01 89.0547C1004.01 86.7493 1004.01 84.444 1004.01 82.1387C1004.01 81.0449 1004.01 79.9511 1004 78.8241C1004.01 77.8097 1004.01 76.7954 1004.02 75.7502C1004.02 74.8569 1004.02 73.9636 1004.02 73.0432C1004.28 70.7598 1004.28 70.7598 1006.28 67.7598Z" fill="#FA4276"/>
<path d="M1046.78 67.4473C1048.02 67.602 1048.02 67.602 1049.28 67.7598C1051.44 71.0029 1051.53 71.8983 1051.54 75.6426C1051.54 76.6337 1051.55 77.6248 1051.56 78.646C1051.55 79.7148 1051.55 80.7836 1051.54 81.8848C1051.55 82.9832 1051.55 84.0817 1051.55 85.2134C1051.55 87.5368 1051.55 89.8602 1051.54 92.1836C1051.53 95.7456 1051.54 99.3071 1051.55 102.869C1051.55 105.124 1051.55 107.38 1051.54 109.635C1051.55 110.704 1051.55 111.772 1051.56 112.874C1051.55 113.865 1051.54 114.856 1051.54 115.877C1051.54 117.186 1051.54 117.186 1051.53 118.521C1051.28 120.76 1051.28 120.76 1049.28 123.76C1046.78 124.072 1046.78 124.072 1044.28 123.76C1041.74 121.217 1042.03 120.315 1042.02 116.791C1042.01 115.757 1042.01 114.722 1042 113.656C1042.01 112.535 1042.01 111.415 1042.01 110.26C1042.01 109.113 1042.01 107.967 1042.01 106.785C1042.01 104.357 1042.01 101.93 1042.02 99.502C1042.03 95.7752 1042.02 92.049 1042.01 88.3223C1042.01 85.9681 1042.01 83.6139 1042.01 81.2598C1042.01 80.1389 1042.01 79.0181 1042 77.8633C1042.01 76.8288 1042.01 75.7943 1042.02 74.7285C1042.02 73.8152 1042.02 72.9019 1042.02 71.9609C1042.41 68.6347 1043.52 67.8546 1046.78 67.4473Z" fill="#FA4276"/>
<path d="M1065.84 64.5723C1068.28 64.7598 1068.28 64.7598 1069.28 65.7598C1069.38 67.6261 1069.41 69.4962 1069.41 71.3652C1069.41 72.5632 1069.41 73.7611 1069.42 74.9954C1069.42 76.2995 1069.41 77.6036 1069.41 78.9473C1069.41 80.2887 1069.41 81.63 1069.41 82.9714C1069.42 85.786 1069.41 88.6005 1069.41 91.415C1069.4 95.0302 1069.41 98.6452 1069.41 102.26C1069.42 105.031 1069.42 107.802 1069.41 110.573C1069.41 112.557 1069.41 114.54 1069.42 116.524C1069.41 117.722 1069.41 118.92 1069.41 120.154C1069.41 121.745 1069.41 121.745 1069.41 123.368C1069.28 125.76 1069.28 125.76 1068.28 126.76C1066.28 126.801 1064.28 126.802 1062.28 126.76C1060.97 124.135 1061.14 122.179 1061.13 119.24C1061.13 118.086 1061.12 116.931 1061.11 115.741C1061.11 114.489 1061.11 113.237 1061.11 111.947C1061.11 110.028 1061.11 110.028 1061.1 108.069C1061.09 105.359 1061.09 102.649 1061.09 99.9385C1061.09 96.4613 1061.08 92.9843 1061.06 89.5072C1061.05 86.1955 1061.05 82.8839 1061.05 79.5723C1061.04 78.3202 1061.03 77.0681 1061.03 75.7781C1061.03 74.6235 1061.03 73.4689 1061.04 72.2793C1061.03 71.2594 1061.03 70.2395 1061.03 69.1887C1061.39 65.6875 1062.35 64.828 1065.84 64.5723Z" fill="#FA4276"/>
<path d="M732.279 173.76C735.432 175.533 736.788 176.956 738.654 180.01C739.522 183.831 739.424 187.004 738.279 190.76C736.221 193.782 734.7 195.338 731.158 196.389C727.291 197.008 724.669 196.882 720.904 195.697C717.598 193.257 716.516 191.69 715.279 187.76C714.906 182.725 715.544 179.683 718.716 175.697C722.857 172.817 727.452 172.89 732.279 173.76Z" fill="black"/>
<path d="M974.279 78.7595C976.192 80.6724 975.443 84.1818 975.447 86.7869C975.45 87.491 975.453 88.1951 975.457 88.9206C975.462 90.4127 975.464 91.9048 975.464 93.397C975.466 95.684 975.484 97.9706 975.503 100.258C975.506 101.705 975.508 103.152 975.509 104.599C975.516 105.286 975.524 105.972 975.531 106.68C975.508 111.531 975.508 111.531 973.279 113.76C971.299 113.43 969.319 113.1 967.279 112.76C967.279 101.54 967.279 90.3195 967.279 78.7595C969.962 77.4177 971.432 78.0295 974.279 78.7595Z" fill="#FA4276"/>
<path d="M1082.28 77.7598C1086.83 78.3153 1086.83 78.3153 1088.28 79.7598C1088.37 82.2081 1088.39 84.628 1088.38 87.0762C1088.37 87.8072 1088.37 88.5383 1088.37 89.2915C1088.37 91.6351 1088.35 93.9787 1088.34 96.3223C1088.34 97.9076 1088.33 99.4928 1088.33 101.078C1088.32 104.972 1088.3 108.866 1088.28 112.76C1085.4 113.385 1085.4 113.385 1082.28 113.76C1079.37 110.855 1080.02 108.692 1080.01 104.635C1080.01 103.932 1080.01 103.229 1080.01 102.505C1080.01 101.019 1080.01 99.533 1080.02 98.0469C1080.03 95.7686 1080.02 93.4911 1080.01 91.2129C1080.01 89.7702 1080.01 88.3275 1080.01 86.8848C1080.02 85.5673 1080.02 84.2499 1080.02 82.8926C1080.28 79.7598 1080.28 79.7598 1082.28 77.7598Z" fill="#FA4276"/>
<path d="M1104.9 86.0095C1105.69 86.257 1106.47 86.5045 1107.28 86.7595C1108.79 89.7782 1108.46 92.8895 1108.47 96.197C1108.48 96.8783 1108.49 97.5596 1108.5 98.2615C1108.51 101.988 1108.4 103.579 1106.28 106.76C1103.78 107.072 1103.78 107.072 1101.28 106.76C1098.66 104.14 1098.99 102.211 1098.96 98.6384C1098.96 97.8534 1098.96 97.0684 1098.97 96.2595C1098.95 95.4745 1098.93 94.6895 1098.92 93.8806C1098.92 91.6033 1098.92 91.6033 1099.28 87.7595C1102.28 85.7595 1102.28 85.7595 1104.9 86.0095Z" fill="#FA4276"/>
<path d="M950.279 85.7598C954.835 86.3153 954.835 86.3153 956.279 87.7598C956.406 90.5839 956.464 93.3727 956.467 96.1973C956.479 96.9868 956.491 97.7764 956.504 98.5898C956.509 100.648 956.401 102.705 956.279 104.76C954.279 106.76 954.279 106.76 951.717 106.947C949.279 106.76 949.279 106.76 948.279 105.76C948.152 102.77 948.094 99.8128 948.092 96.8223C948.079 95.985 948.067 95.1478 948.054 94.2852C948.053 93.484 948.051 92.6829 948.049 91.8574C948.044 91.1202 948.04 90.3829 948.036 89.6233C948.279 87.7598 948.279 87.7598 950.279 85.7598Z" fill="#FA4276"/>
<path d="M1124.03 92.6347C1125.14 93.1916 1125.14 93.1916 1126.28 93.7597C1126.28 96.0697 1126.28 98.3797 1126.28 100.76C1122.9 101.385 1122.9 101.385 1119.28 101.76C1117.28 99.7597 1117.28 99.7597 1117.15 96.6347C1117.2 95.686 1117.24 94.7372 1117.28 93.7597C1120.01 91.9404 1120.81 91.6121 1124.03 92.6347Z" fill="#FA4276"/>
<path d="M933.779 92.6348C937.279 92.7598 937.279 92.7598 938.279 93.7598C938.32 96.0927 938.321 98.4268 938.279 100.76C934.904 101.385 934.904 101.385 931.279 101.76C929.279 99.7598 929.279 99.7598 929.091 96.6973C929.362 92.4524 929.419 92.7905 933.779 92.6348Z" fill="#FA4276"/>
</svg>
