<svg width="637" height="579" viewBox="0 0 637 579" fill="none" xmlns="http://www.w3.org/2000/svg">
<path d="M554.679 397.524C547.379 436.018 525.027 453.104 487.623 448.784C450.218 444.464 420.276 431.324 397.796 409.366C375.317 387.407 354.692 370.751 335.923 359.396C317.154 348.041 295.936 333.622 272.269 316.14C248.601 298.658 236.862 275.181 237.051 245.71C237.24 216.24 242.47 186.171 252.743 155.506C263.015 124.84 284.535 107.975 317.301 104.91C350.067 101.845 378.26 105.049 401.877 114.52C425.495 123.992 459.607 115.369 504.213 88.651C548.819 61.9333 572.9 69.7957 576.457 112.238C580.014 154.681 593.992 190.489 618.39 219.664C642.788 248.839 640.094 276.153 610.308 301.605C580.522 327.058 561.979 359.031 554.679 397.524Z" fill="url(#paint0_radial_1120_140)"/>
<path d="M446.106 289.329C472.506 329.946 461.337 350.457 412.597 350.863C363.857 351.269 328.521 357.768 306.588 370.359C284.655 382.95 258.457 393.916 227.995 403.258C197.533 412.6 159.556 416.662 114.066 415.443C68.5752 414.225 36.6912 393.51 18.4138 353.3C0.136399 313.09 -4.5345 272.473 4.40113 231.45C13.3368 190.428 39.5344 164.027 82.9941 152.248C126.454 140.47 153.261 116.912 163.415 81.5756C173.569 46.2392 195.908 23.0878 230.432 12.1214C264.956 1.1549 298.058 4.60731 329.739 22.4786C361.42 40.3498 394.726 59.2365 429.656 79.1386C464.586 99.0407 469.46 128.894 444.278 168.698C419.096 208.502 419.705 248.712 446.106 289.329Z" fill="url(#paint1_radial_1120_140)"/>
<path d="M221.583 221.166C229.581 167.184 244.962 165.557 267.725 216.285C290.488 267.014 310.647 294.791 328.201 299.616C345.755 304.442 367.441 312.541 393.26 323.915C419.079 335.288 448.903 358.058 482.732 392.225C516.561 426.391 522.587 461.664 500.811 498.043C479.035 534.423 449.073 559.178 410.926 572.309C372.78 585.439 338.258 572.101 307.361 532.294C276.464 492.487 245.611 483.512 214.802 505.37C183.992 527.227 154.829 529.572 127.314 512.403C99.7988 495.235 85.2812 470.39 83.7612 437.869C82.2412 405.348 76.737 370.449 67.2487 333.171C57.7604 295.894 79.1114 281.403 131.302 289.698C183.492 297.992 213.586 275.148 221.583 221.166Z" fill="url(#paint2_radial_1120_140)"/>
<defs>
<radialGradient id="paint0_radial_1120_140" cx="0" cy="0" r="1" gradientUnits="userSpaceOnUse" gradientTransform="translate(617.168 12.5676) rotate(119.58) scale(631.901 659.819)">
<stop stop-color="#8826EE" stop-opacity="0.25"/>
<stop offset="0.5" stop-color="#6B1EBB" stop-opacity="0.5"/>
<stop offset="1" stop-color="#4D1688" stop-opacity="0.44"/>
</radialGradient>
<radialGradient id="paint1_radial_1120_140" cx="0" cy="0" r="1" gradientUnits="userSpaceOnUse" gradientTransform="translate(293.657 348.872) rotate(-100.466) scale(348.81 391.636)">
<stop stop-color="#A154F2" stop-opacity="0.65"/>
<stop offset="1" stop-color="#5D318C" stop-opacity="0.36"/>
</radialGradient>
<radialGradient id="paint2_radial_1120_140" cx="0" cy="0" r="1" gradientUnits="userSpaceOnUse" gradientTransform="translate(274.161 324.502) rotate(97.9372) scale(255.898 219.176)">
<stop stop-color="#C497F2" stop-opacity="0.25"/>
<stop offset="0.5" stop-color="#9A77BF" stop-opacity="0.64"/>
<stop offset="1" stop-color="#71588C" stop-opacity="0.65"/>
</radialGradient>
</defs>
</svg>
